<svg width="1100" height="620" xmlns="http://www.w3.org/2000/svg" font-family="Arial,sans-serif"><rect width="1100" height="620" fill="#0f1117"/><line x1="90" y1="570.0" x2="1060" y2="570.0" stroke="#1e2030" stroke-width="1"/><text x="82" y="570.0" fill="#5a5a7a" font-size="11" text-anchor="end" dominant-baseline="middle">$9143</text><line x1="90" y1="480.0" x2="1060" y2="480.0" stroke="#1e2030" stroke-width="1"/><text x="82" y="480.0" fill="#5a5a7a" font-size="11" text-anchor="end" dominant-baseline="middle">$10472</text><line x1="90" y1="390.0" x2="1060" y2="390.0" stroke="#1e2030" stroke-width="1"/><text x="82" y="390.0" fill="#5a5a7a" font-size="11" text-anchor="end" dominant-baseline="middle">$11801</text><line x1="90" y1="300.0" x2="1060" y2="300.0" stroke="#1e2030" stroke-width="1"/><text x="82" y="300.0" fill="#5a5a7a" font-size="11" text-anchor="end" dominant-baseline="middle">$13130</text><line x1="90" y1="210.0" x2="1060" y2="210.0" stroke="#1e2030" stroke-width="1"/><text x="82" y="210.0" fill="#5a5a7a" font-size="11" text-anchor="end" dominant-baseline="middle">$14459</text><line x1="90" y1="120.0" x2="1060" y2="120.0" stroke="#1e2030" stroke-width="1"/><line x1="90" y1="30.0" x2="1060" y2="30.0" stroke="#1e2030" stroke-width="1"/><text x="82" y="30.0" fill="#5a5a7a" font-size="11" text-anchor="end" dominant-baseline="middle">$17117</text><line x1="90.0" y1="30" x2="90.0" y2="570" stroke="#1e2030" stroke-width="1"/><text x="90.0" y="588" fill="#5a5a7a" font-size="11" text-anchor="middle">0</text><line x1="187.0" y1="30" x2="187.0" y2="570" stroke="#1e2030" stroke-width="1"/><text x="187.0" y="588" fill="#5a5a7a" font-size="11" text-anchor="middle">10</text><line x1="284.0" y1="30" x2="284.0" y2="570" stroke="#1e2030" stroke-width="1"/><text x="284.0" y="588" fill="#5a5a7a" font-size="11" text-anchor="middle">20</text><line x1="381.0" y1="30" x2="381.0" y2="570" stroke="#1e2030" stroke-width="1"/><text x="381.0" y="588" fill="#5a5a7a" font-size="11" text-anchor="middle">30</text><line x1="478.0" y1="30" x2="478.0" y2="570" stroke="#1e2030" stroke-width="1"/><text x="478.0" y="588" fill="#5a5a7a" font-size="11" text-anchor="middle">40</text><line x1="575.0" y1="30" x2="575.0" y2="570" stroke="#1e2030" stroke-width="1"/><text x="575.0" y="588" fill="#5a5a7a" font-size="11" text-anchor="middle">50</text><line x1="672.0" y1="30" x2="672.0" y2="570" stroke="#1e2030" stroke-width="1"/><text x="672.0" y="588" fill="#5a5a7a" font-size="11" text-anchor="middle">60</text><line x1="769.0" y1="30" x2="769.0" y2="570" stroke="#1e2030" stroke-width="1"/><text x="769.0" y="588" fill="#5a5a7a" font-size="11" text-anchor="middle">70</text><line x1="866.0" y1="30" x2="866.0" y2="570" stroke="#1e2030" stroke-width="1"/><text x="866.0" y="588" fill="#5a5a7a" font-size="11" text-anchor="middle">80</text><line x1="963.0" y1="30" x2="963.0" y2="570" stroke="#1e2030" stroke-width="1"/><text x="963.0" y="588" fill="#5a5a7a" font-size="11" text-anchor="middle">90</text><line x1="1060.0" y1="30" x2="1060.0" y2="570" stroke="#1e2030" stroke-width="1"/><text x="1060.0" y="588" fill="#5a5a7a" font-size="11" text-anchor="middle">100</text><rect x="90" y="30" width="970" height="540" fill="none" stroke="#2a2a4a" stroke-width="1"/><defs><clipPath id="plot"><rect x="90" y="30" width="970" height="540"/></clipPath></defs><g clip-path="url(#plot)"><polyline points="90.0,512.0 99.7,505.6 109.4,512.4 119.1,504.8 128.8,498.2 138.5,505.1 148.2,497.9 157.9,491.6 167.6,484.6 177.3,491.7 187.0,484.9 196.7,492.0 206.4,484.8 216.1,491.8 225.8,498.8 235.5,491.9 245.2,485.5 254.9,479.1 264.6,486.2 274.3,479.5 284.0,472.9 293.7,465.9 303.4,473.2 313.1,466.2 322.8,473.4 332.5,480.6 342.2,473.5 351.9,466.2 361.6,459.6 371.3,452.2 381.0,459.5 390.7,466.8 400.4,459.7 410.1,467.0 419.8,459.8 429.5,467.1 439.2,459.5 448.9,452.3 458.6,459.6 468.3,452.1 478.0,459.5 487.7,466.8 497.4,459.3 507.1,452.5 516.8,444.7 526.5,452.2 536.2,444.0 545.9,436.0 555.6,443.6 565.3,436.7 575.0,429.1 584.7,436.7 594.4,444.2 604.1,437.2 613.8,429.4 623.5,437.0 633.2,444.5 642.9,436.9 652.6,429.0 662.3,436.7 672.0,428.9 681.7,421.0 691.4,428.6 701.1,421.4 710.8,429.1 720.5,436.7 730.2,444.2 739.9,451.7 749.6,444.3 759.3,451.7 769.0,459.1 778.7,466.4 788.4,458.9 798.1,466.2 807.8,458.9 817.5,451.5 827.2,444.3 836.9,451.7 846.6,444.6 856.3,452.1 866.0,445.1 875.7,452.6 885.4,445.3 895.1,452.7 904.8,446.2 914.5,438.4 924.2,445.9 933.9,453.3 943.6,446.2 953.3,453.6 963.0,461.0 972.7,453.1 982.4,460.4 992.1,453.4 1001.8,460.7 1011.5,468.0 1021.2,461.4 1030.9,468.6 1040.6,475.8 1050.3,483.0 1060.0,476.0" fill="none" stroke="#4a9eff" stroke-width="0.6" opacity="0.15"/>
<polyline points="90.0,512.0 99.7,518.7 109.4,512.3 119.1,519.1 128.8,512.2 138.5,504.5 148.2,497.4 157.9,490.4 167.6,497.4 177.3,504.3 187.0,496.6 196.7,503.5 206.4,496.9 216.1,490.1 225.8,482.9 235.5,475.2 245.2,482.3 254.9,489.4 264.6,482.8 274.3,489.9 284.0,496.9 293.7,503.8 303.4,510.7 313.1,517.5 322.8,510.9 332.5,504.2 342.2,496.6 351.9,490.3 361.6,497.3 371.3,490.2 381.0,483.2 390.7,476.0 400.4,469.4 410.1,461.7 419.8,454.3 429.5,461.6 439.2,454.5 448.9,461.8 458.6,454.2 468.3,446.6 478.0,454.1 487.7,461.4 497.4,453.8 507.1,461.1 516.8,453.5 526.5,445.9 536.2,453.3 545.9,445.9 555.6,453.3 565.3,460.7 575.0,453.7 584.7,446.3 594.4,438.7 604.1,446.2 613.8,453.7 623.5,461.0 633.2,453.5 642.9,460.8 652.6,452.9 662.3,445.8 672.0,438.1 681.7,445.6 691.4,438.3 701.1,445.8 710.8,453.2 720.5,445.6 730.2,453.1 739.9,460.4 749.6,453.7 759.3,446.4 769.0,438.8 778.7,431.2 788.4,438.8 798.1,446.3 807.8,439.2 817.5,432.3 827.2,424.3 836.9,432.0 846.6,439.6 856.3,447.0 866.0,454.5 875.7,447.0 885.4,439.4 895.1,446.9 904.8,439.4 914.5,446.9 924.2,439.1 933.9,431.6 943.6,439.2 953.3,446.7 963.0,439.9 972.7,447.4 982.4,439.2 992.1,431.3 1001.8,438.9 1011.5,431.8 1021.2,439.3 1030.9,431.5 1040.6,439.1 1050.3,431.6 1060.0,424.7" fill="none" stroke="#ff9f6b" stroke-width="0.6" opacity="0.15"/>
<polyline points="90.0,512.0 99.7,505.7 109.4,498.9 119.1,492.2 128.8,499.2 138.5,492.3 148.2,485.6 157.9,492.7 167.6,499.6 177.3,492.4 187.0,485.2 196.7,492.2 206.4,485.1 216.1,492.1 225.8,485.1 235.5,478.4 245.2,471.5 254.9,464.3 264.6,471.6 274.3,464.2 284.0,471.4 293.7,478.6 303.4,485.7 313.1,479.5 322.8,471.9 332.5,464.9 342.2,457.9 351.9,465.2 361.6,457.7 371.3,450.2 381.0,457.6 390.7,464.9 400.4,472.1 410.1,479.3 419.8,472.2 429.5,465.2 439.2,472.4 448.9,479.6 458.6,473.2 468.3,480.4 478.0,473.5 487.7,466.5 497.4,473.8 507.1,466.7 516.8,459.0 526.5,451.6 536.2,444.6 545.9,437.1 555.6,429.7 565.3,422.1 575.0,429.7 584.7,422.6 594.4,430.3 604.1,437.9 613.8,430.2 623.5,422.6 633.2,430.3 642.9,422.7 652.6,415.5 662.3,407.1 672.0,399.4 681.7,407.3 691.4,415.1 701.1,422.8 710.8,430.5 720.5,438.1 730.2,430.1 739.9,437.7 749.6,430.1 759.3,422.4 769.0,430.0 778.7,422.2 788.4,414.7 798.1,422.4 807.8,430.1 817.5,422.9 827.2,415.0 836.9,422.8 846.6,415.1 856.3,422.8 866.0,414.9 875.7,422.6 885.4,414.9 895.1,406.3 904.8,414.2 914.5,406.6 924.2,398.7 933.9,390.5 943.6,382.0 953.3,390.0 963.0,398.0 972.7,405.9 982.4,413.8 992.1,421.5 1001.8,413.9 1011.5,406.6 1021.2,398.7 1030.9,406.6 1040.6,414.4 1050.3,405.9 1060.0,413.7" fill="none" stroke="#ff6bd5" stroke-width="0.6" opacity="0.15"/>
<polyline points="90.0,512.0 99.7,518.7 109.4,525.4 119.1,519.1 128.8,525.8 138.5,532.4 148.2,525.6 157.9,518.4 167.6,525.1 177.3,531.7 187.0,538.3 196.7,532.0 206.4,525.8 216.1,532.4 225.8,526.0 235.5,519.4 245.2,526.1 254.9,519.0 264.6,525.7 274.3,519.1 284.0,512.1 293.7,505.4 303.4,498.7 313.1,505.6 322.8,512.4 332.5,519.2 342.2,525.9 351.9,532.5 361.6,539.1 371.3,533.3 381.0,539.8 390.7,533.3 400.4,526.5 410.1,519.5 419.8,526.2 429.5,532.9 439.2,526.4 448.9,519.6 458.6,526.3 468.3,519.6 478.0,526.3 487.7,533.0 497.4,526.7 507.1,520.5 516.8,514.1 526.5,520.8 536.2,527.5 545.9,521.0 555.6,514.5 565.3,507.6 575.0,514.4 584.7,508.1 594.4,500.3 604.1,493.4 613.8,486.5 623.5,479.4 633.2,486.5 642.9,480.0 652.6,472.7 662.3,465.6 672.0,472.8 681.7,465.6 691.4,472.8 701.1,465.7 710.8,458.7 720.5,466.0 730.2,458.9 739.9,451.3 749.6,458.7 759.3,452.0 769.0,459.4 778.7,466.7 788.4,473.9 798.1,466.5 807.8,459.2 817.5,466.5 827.2,459.6 836.9,466.9 846.6,459.7 856.3,452.4 866.0,459.8 875.7,451.9 885.4,444.7 895.1,437.6 904.8,429.2 914.5,436.8 924.2,429.2 933.9,421.6 943.6,414.5 953.3,422.2 963.0,429.9 972.7,437.5 982.4,429.4 992.1,422.6 1001.8,414.9 1011.5,407.6 1021.2,415.4 1030.9,408.0 1040.6,415.8 1050.3,407.8 1060.0,400.8" fill="none" stroke="#ff6b9f" stroke-width="0.6" opacity="0.15"/>
<polyline points="90.0,512.0 99.7,505.3 109.4,512.1 119.1,505.0 128.8,511.8 138.5,518.6 148.2,525.3 157.9,532.0 167.6,538.5 177.3,545.0 187.0,538.4 196.7,531.3 206.4,524.1 216.1,517.8 225.8,524.5 235.5,518.0 245.2,524.8 254.9,531.4 264.6,524.7 274.3,531.3 284.0,537.9 293.7,544.4 303.4,538.5 313.1,532.4 322.8,525.7 332.5,519.5 342.2,512.5 351.9,506.0 361.6,512.8 371.3,519.6 381.0,512.5 390.7,506.0 400.4,499.2 410.1,492.0 419.8,499.0 429.5,491.7 439.2,498.7 448.9,491.5 458.6,484.3 468.3,477.1 478.0,484.2 487.7,477.1 497.4,469.7 507.1,462.3 516.8,469.5 526.5,462.6 536.2,469.8 545.9,462.8 555.6,455.4 565.3,448.1 575.0,440.7 584.7,433.1 594.4,440.6 604.1,448.1 613.8,440.4 623.5,447.9 633.2,455.3 642.9,447.8 652.6,455.2 662.3,462.6 672.0,469.8 681.7,477.0 691.4,470.5 701.1,477.7 710.8,470.9 720.5,463.5 730.2,470.7 739.9,477.9 749.6,485.0 759.3,478.2 769.0,485.3 778.7,492.3 788.4,484.8 798.1,477.7 807.8,470.0 817.5,462.2 827.2,454.2 836.9,447.2 846.6,439.0 856.3,431.7 866.0,439.3 875.7,432.2 885.4,439.8 895.1,431.9 904.8,424.1 914.5,417.1 924.2,409.8 933.9,402.2 943.6,393.9 953.3,386.4 963.0,394.4 972.7,386.6 982.4,394.7 992.1,402.6 1001.8,410.5 1011.5,418.3 1021.2,426.0 1030.9,418.3 1040.6,410.7 1050.3,403.3 1060.0,395.6" fill="none" stroke="#ff9f6b" stroke-width="0.6" opacity="0.15"/>
<polyline points="90.0,512.0 99.7,518.7 109.4,525.4 119.1,518.7 128.8,525.4 138.5,518.6 148.2,511.9 157.9,505.3 167.6,512.1 177.3,505.5 187.0,512.3 196.7,505.9 206.4,499.5 216.1,492.6 225.8,485.0 235.5,478.2 245.2,485.3 254.9,479.1 264.6,486.2 274.3,479.4 284.0,486.5 293.7,493.5 303.4,500.5 313.1,507.4 322.8,514.2 332.5,521.0 342.2,527.6 351.9,534.3 361.6,527.3 371.3,534.0 381.0,527.7 390.7,521.8 400.4,528.5 410.1,535.1 419.8,528.4 429.5,535.0 439.2,529.0 448.9,523.0 458.6,516.7 468.3,510.1 478.0,503.1 487.7,509.9 497.4,502.6 507.1,509.5 516.8,516.3 526.5,509.5 536.2,502.8 545.9,509.7 555.6,502.9 565.3,495.9 575.0,489.3 584.7,482.2 594.4,489.3 604.1,482.2 613.8,489.3 623.5,482.1 633.2,475.1 642.9,468.3 652.6,460.6 662.3,467.9 672.0,459.9 681.7,467.2 691.4,460.1 701.1,452.7 710.8,445.5 720.5,437.9 730.2,430.6 739.9,438.1 749.6,430.7 759.3,438.3 769.0,430.0 778.7,437.6 788.4,430.3 798.1,422.5 807.8,414.1 817.5,406.8 827.2,399.0 836.9,390.8 846.6,382.7 856.3,375.1 866.0,383.3 875.7,375.0 885.4,367.1 895.1,358.7 904.8,367.0 914.5,358.7 924.2,367.0 933.9,358.5 943.6,366.8 953.3,359.3 963.0,350.6 972.7,359.0 982.4,367.3 992.1,359.1 1001.8,367.4 1011.5,359.2 1021.2,351.2 1030.9,359.6 1040.6,367.9 1050.3,376.1 1060.0,384.2" fill="none" stroke="#b86bff" stroke-width="0.6" opacity="0.15"/>
<polyline points="90.0,512.0 99.7,518.7 109.4,525.4 119.1,518.8 128.8,512.0 138.5,518.8 148.2,525.5 157.9,519.0 167.6,525.7 177.3,519.0 187.0,525.7 196.7,519.3 206.4,512.9 216.1,519.7 225.8,526.4 235.5,520.4 245.2,513.3 254.9,520.0 264.6,526.7 274.3,520.1 284.0,513.2 293.7,506.6 303.4,500.2 313.1,493.2 322.8,486.5 332.5,493.5 342.2,486.8 351.9,479.7 361.6,473.1 371.3,480.3 381.0,473.1 390.7,465.3 400.4,458.3 410.1,450.3 419.8,443.1 429.5,450.5 439.2,457.9 448.9,465.2 458.6,472.5 468.3,479.6 478.0,472.5 487.7,464.5 497.4,457.4 507.1,450.0 516.8,457.4 526.5,449.0 536.2,456.4 545.9,448.8 555.6,441.3 565.3,448.8 575.0,441.8 584.7,449.2 594.4,442.2 604.1,435.2 613.8,427.3 623.5,419.4 633.2,412.0 642.9,419.7 652.6,412.1 662.3,404.3 672.0,396.7 681.7,404.6 691.4,412.5 701.1,420.3 710.8,427.9 720.5,435.6 730.2,443.1 739.9,435.5 749.6,428.3 759.3,435.9 769.0,428.6 778.7,436.2 788.4,428.6 798.1,436.2 807.8,428.7 817.5,436.4 827.2,443.9 836.9,436.5 846.6,428.7 856.3,421.5 866.0,429.2 875.7,436.8 885.4,444.3 895.1,451.7 904.8,444.8 914.5,437.9 924.2,445.4 933.9,437.6 943.6,429.3 953.3,436.9 963.0,429.8 972.7,437.4 982.4,429.8 992.1,437.4 1001.8,429.4 1011.5,421.5 1021.2,413.8 1030.9,406.2 1040.6,398.1 1050.3,389.7 1060.0,381.3" fill="none" stroke="#ffec6b" stroke-width="0.6" opacity="0.15"/>
<polyline points="90.0,512.0 99.7,504.6 109.4,511.5 119.1,504.7 128.8,497.3 138.5,490.3 148.2,497.3 157.9,504.2 167.6,511.1 177.3,517.9 187.0,510.9 196.7,504.2 206.4,511.1 216.1,504.3 225.8,497.2 235.5,504.1 245.2,511.0 254.9,517.7 264.6,524.5 274.3,517.2 284.0,510.8 293.7,503.9 303.4,497.1 313.1,490.7 322.8,497.7 332.5,490.8 342.2,483.7 351.9,490.8 361.6,483.3 371.3,475.9 381.0,483.0 390.7,476.1 400.4,468.9 410.1,461.4 419.8,468.7 429.5,461.8 439.2,469.1 448.9,462.0 458.6,469.2 468.3,476.4 478.0,468.4 487.7,475.6 497.4,482.7 507.1,475.4 516.8,482.5 526.5,475.8 536.2,483.0 545.9,490.0 555.6,497.0 565.3,490.1 575.0,483.3 584.7,490.3 594.4,482.9 604.1,475.7 613.8,468.9 623.5,476.1 633.2,468.6 642.9,461.8 652.6,453.3 662.3,460.7 672.0,468.0 681.7,475.2 691.4,468.2 701.1,461.2 710.8,454.0 720.5,446.6 730.2,440.1 739.9,447.6 749.6,455.0 759.3,447.7 769.0,440.2 778.7,447.7 788.4,455.1 798.1,462.4 807.8,455.3 817.5,462.6 827.2,469.9 836.9,462.0 846.6,469.3 856.3,462.0 866.0,454.2 875.7,446.8 885.4,439.0 895.1,431.1 904.8,422.6 914.5,414.6 924.2,422.3 933.9,430.0 943.6,422.9 953.3,415.5 963.0,408.0 972.7,415.8 982.4,408.1 992.1,399.8 1001.8,391.1 1011.5,399.0 1021.2,391.2 1030.9,383.3 1040.6,375.9 1050.3,368.4 1060.0,376.6" fill="none" stroke="#6bd5ff" stroke-width="0.6" opacity="0.15"/>
<polyline points="90.0,512.0 99.7,505.1 109.4,497.9 119.1,490.8 128.8,483.7 138.5,476.6 148.2,483.7 157.9,490.8 167.6,484.0 177.3,491.0 187.0,483.7 196.7,477.4 206.4,484.5 216.1,477.4 225.8,471.1 235.5,464.4 245.2,457.2 254.9,464.5 264.6,471.8 274.3,464.6 284.0,457.2 293.7,450.2 303.4,443.1 313.1,436.1 322.8,429.9 332.5,423.0 342.2,414.8 351.9,406.5 361.6,414.4 371.3,406.6 381.0,399.2 390.7,407.1 400.4,399.5 410.1,391.7 419.8,383.3 429.5,375.7 439.2,383.8 448.9,391.9 458.6,399.8 468.3,407.7 478.0,415.6 487.7,408.0 497.4,401.2 507.1,393.0 516.8,384.3 526.5,376.3 536.2,384.5 545.9,392.5 555.6,385.0 565.3,393.0 575.0,401.0 584.7,392.9 594.4,385.5 604.1,393.5 613.8,385.2 623.5,377.0 633.2,385.1 642.9,393.2 652.6,385.3 662.3,377.5 672.0,369.6 681.7,361.1 691.4,369.4 701.1,377.6 710.8,369.1 720.5,377.3 730.2,369.5 739.9,361.0 749.6,369.3 759.3,377.5 769.0,368.9 778.7,361.0 788.4,369.3 798.1,377.5 807.8,369.3 817.5,360.5 827.2,351.7 836.9,343.2 846.6,351.7 856.3,342.9 866.0,334.9 875.7,326.1 885.4,334.7 895.1,343.2 904.8,334.4 914.5,342.9 924.2,351.4 933.9,343.1 943.6,334.0 953.3,342.5 963.0,351.0 972.7,342.9 982.4,351.3 992.1,343.0 1001.8,351.5 1011.5,359.8 1021.2,350.8 1030.9,342.7 1040.6,351.2 1050.3,359.6 1060.0,367.9" fill="none" stroke="#9fff6b" stroke-width="0.6" opacity="0.15"/>
<polyline points="90.0,512.0 99.7,505.0 109.4,498.2 119.1,491.6 128.8,484.5 138.5,491.6 148.2,484.9 157.9,477.9 167.6,470.8 177.3,477.9 187.0,485.1 196.7,478.3 206.4,485.4 216.1,478.1 225.8,470.7 235.5,464.4 245.2,471.6 254.9,478.8 264.6,471.5 274.3,464.4 284.0,471.7 293.7,478.8 303.4,485.9 313.1,493.0 322.8,499.9 332.5,492.3 342.2,499.3 351.9,506.2 361.6,499.4 371.3,506.3 381.0,513.1 390.7,506.7 400.4,513.5 410.1,520.3 419.8,513.8 429.5,506.3 439.2,499.6 448.9,492.0 458.6,485.0 468.3,478.5 478.0,485.6 487.7,478.2 497.4,471.0 507.1,464.3 516.8,457.0 526.5,449.7 536.2,442.3 545.9,435.1 555.6,442.6 565.3,435.1 575.0,427.7 584.7,420.6 594.4,412.3 604.1,404.7 613.8,396.8 623.5,404.7 633.2,396.8 642.9,388.2 652.6,379.7 662.3,387.8 672.0,395.8 681.7,387.5 691.4,395.6 701.1,387.3 710.8,395.3 720.5,387.6 730.2,378.9 739.9,371.4 749.6,363.2 759.3,371.5 769.0,363.6 778.7,371.9 788.4,364.3 798.1,356.3 807.8,364.6 817.5,356.0 827.2,364.3 836.9,372.5 846.6,364.4 856.3,372.7 866.0,364.7 875.7,356.6 885.4,364.9 895.1,357.0 904.8,365.3 914.5,373.6 924.2,381.7 933.9,389.8 943.6,381.2 953.3,373.2 963.0,364.7 972.7,372.9 982.4,364.8 992.1,355.9 1001.8,364.3 1011.5,372.5 1021.2,380.7 1030.9,388.8 1040.6,381.4 1050.3,372.8 1060.0,364.4" fill="none" stroke="#ff9f6b" stroke-width="0.6" opacity="0.15"/>
<polyline points="90.0,512.0 99.7,518.7 109.4,525.4 119.1,518.9 128.8,512.3 138.5,506.0 148.2,499.5 157.9,493.0 167.6,485.2 177.3,492.2 187.0,499.2 196.7,506.1 206.4,499.4 216.1,506.3 225.8,513.1 235.5,506.3 245.2,513.2 254.9,506.3 264.6,499.4 274.3,492.3 284.0,485.8 293.7,492.9 303.4,499.8 313.1,506.7 322.8,513.5 332.5,506.7 342.2,499.6 351.9,492.6 361.6,499.5 371.3,506.4 381.0,499.9 390.7,493.3 400.4,500.3 410.1,494.0 419.8,500.9 429.5,493.8 439.2,487.3 448.9,494.3 458.6,487.9 468.3,481.1 478.0,474.2 487.7,467.5 497.4,460.3 507.1,453.1 516.8,446.1 526.5,438.6 536.2,431.9 545.9,424.5 555.6,417.2 565.3,409.7 575.0,417.5 584.7,409.4 594.4,401.4 604.1,409.3 613.8,417.1 623.5,409.2 633.2,401.5 642.9,393.7 652.6,401.7 662.3,409.5 672.0,402.1 681.7,393.8 691.4,401.8 701.1,395.3 710.8,387.1 720.5,379.0 730.2,387.1 739.9,395.1 749.6,387.8 759.3,380.6 769.0,388.7 778.7,381.2 788.4,372.5 798.1,364.3 807.8,372.5 817.5,364.8 827.2,357.1 836.9,365.4 846.6,357.0 856.3,348.3 866.0,356.7 875.7,349.0 885.4,357.4 895.1,365.7 904.8,373.9 914.5,366.0 924.2,357.5 933.9,349.1 943.6,357.5 953.3,365.8 963.0,357.3 972.7,348.8 982.4,339.7 992.1,348.2 1001.8,356.6 1011.5,364.9 1021.2,373.2 1030.9,366.0 1040.6,358.5 1050.3,366.8 1060.0,358.4" fill="none" stroke="#6bd5ff" stroke-width="0.6" opacity="0.15"/>
<polyline points="90.0,512.0 99.7,505.7 109.4,498.9 119.1,492.5 128.8,485.0 138.5,478.2 148.2,471.2 157.9,464.2 167.6,457.0 177.3,449.7 187.0,457.1 196.7,450.4 206.4,457.8 216.1,450.7 225.8,458.1 235.5,450.2 245.2,442.9 254.9,435.3 264.6,427.6 274.3,419.6 284.0,412.5 293.7,420.3 303.4,412.5 313.1,420.3 322.8,412.3 332.5,420.1 342.2,412.2 351.9,419.9 361.6,427.6 371.3,435.2 381.0,428.2 390.7,435.8 400.4,428.3 410.1,420.9 419.8,413.3 429.5,405.4 439.2,397.8 448.9,405.7 458.6,413.5 468.3,405.5 478.0,397.5 487.7,389.6 497.4,381.7 507.1,373.6 516.8,365.9 526.5,357.7 536.2,366.0 545.9,358.1 555.6,350.7 565.3,359.1 575.0,367.4 584.7,375.6 594.4,368.2 604.1,376.4 613.8,368.1 623.5,359.7 633.2,368.0 642.9,376.2 652.6,384.3 662.3,392.3 672.0,400.3 681.7,393.1 691.4,401.1 701.1,393.3 710.8,385.9 720.5,377.0 730.2,385.1 739.9,393.2 749.6,401.1 759.3,393.1 769.0,401.0 778.7,408.9 788.4,401.0 798.1,392.8 807.8,384.5 817.5,376.3 827.2,384.4 836.9,392.4 846.6,400.4 856.3,392.8 866.0,400.8 875.7,392.7 885.4,385.2 895.1,377.4 904.8,369.7 914.5,361.4 924.2,369.7 933.9,361.5 943.6,369.8 953.3,377.9 963.0,386.1 972.7,394.1 982.4,386.2 992.1,394.2 1001.8,386.0 1011.5,377.7 1021.2,369.1 1030.9,360.8 1040.6,352.1 1050.3,360.5 1060.0,352.2" fill="none" stroke="#9fff6b" stroke-width="0.6" opacity="0.15"/>
<polyline points="90.0,512.0 99.7,505.1 109.4,498.3 119.1,491.4 128.8,498.4 138.5,505.3 148.2,498.7 157.9,492.2 167.6,484.5 177.3,477.5 187.0,470.4 196.7,463.4 206.4,455.8 216.1,447.7 225.8,455.1 235.5,447.8 245.2,455.3 254.9,447.8 264.6,440.3 274.3,432.9 284.0,426.0 293.7,419.1 303.4,426.8 313.1,434.4 322.8,427.3 332.5,419.1 342.2,426.8 351.9,419.4 361.6,412.2 371.3,420.0 381.0,412.4 390.7,404.4 400.4,397.9 410.1,390.0 419.8,381.4 429.5,373.4 439.2,365.1 448.9,356.7 458.6,347.9 468.3,356.3 478.0,348.2 487.7,356.6 497.4,365.0 507.1,357.2 516.8,365.6 526.5,357.5 536.2,349.5 545.9,357.9 555.6,349.9 565.3,358.3 575.0,350.2 584.7,342.1 594.4,350.6 604.1,342.2 613.8,334.1 623.5,325.5 633.2,334.1 642.9,326.1 652.6,334.8 662.3,325.4 672.0,334.1 681.7,325.4 691.4,334.1 701.1,325.6 710.8,334.2 720.5,325.0 730.2,333.6 739.9,324.9 749.6,315.3 759.3,306.4 769.0,315.2 778.7,324.0 788.4,332.6 798.1,324.2 807.8,315.6 817.5,324.3 827.2,315.8 836.9,324.5 846.6,316.0 856.3,324.7 866.0,316.8 875.7,307.6 885.4,316.5 895.1,307.4 904.8,298.9 914.5,307.8 924.2,298.2 933.9,307.1 943.6,297.5 953.3,288.7 963.0,297.7 972.7,288.9 982.4,279.7 992.1,288.8 1001.8,297.8 1011.5,306.7 1021.2,315.5 1030.9,324.2 1040.6,332.9 1050.3,341.4 1060.0,349.9" fill="none" stroke="#4a9eff" stroke-width="0.6" opacity="0.15"/>
<polyline points="90.0,512.0 99.7,504.5 109.4,511.4 119.1,504.4 128.8,511.3 138.5,504.8 148.2,497.8 157.9,504.7 167.6,511.5 177.3,504.5 187.0,497.4 196.7,490.3 206.4,482.8 216.1,489.9 225.8,496.9 235.5,490.1 245.2,497.1 254.9,504.0 264.6,510.9 274.3,503.4 284.0,510.3 293.7,503.8 303.4,497.7 313.1,491.2 322.8,484.0 332.5,477.3 342.2,470.2 351.9,463.3 361.6,456.2 371.3,448.9 381.0,440.6 390.7,432.3 400.4,439.8 410.1,447.3 419.8,439.6 429.5,432.0 439.2,423.9 448.9,431.5 458.6,424.4 468.3,432.0 478.0,439.6 487.7,433.1 497.4,440.7 507.1,448.1 516.8,441.2 526.5,433.9 536.2,426.0 545.9,418.8 555.6,426.5 565.3,434.2 575.0,425.9 584.7,433.5 594.4,425.9 604.1,433.6 613.8,426.1 623.5,418.4 633.2,426.1 642.9,433.7 652.6,426.0 662.3,418.7 672.0,410.8 681.7,403.5 691.4,395.8 701.1,403.7 710.8,411.6 720.5,404.5 730.2,412.3 739.9,405.1 749.6,412.9 759.3,420.7 769.0,428.3 778.7,420.6 788.4,412.6 798.1,405.0 807.8,412.8 817.5,404.6 827.2,396.6 836.9,388.8 846.6,396.8 856.3,404.7 866.0,397.4 875.7,405.3 885.4,397.3 895.1,388.8 904.8,380.6 914.5,372.2 924.2,380.3 933.9,372.3 943.6,380.5 953.3,372.1 963.0,364.1 972.7,356.0 982.4,347.0 992.1,339.4 1001.8,330.9 1011.5,322.3 1021.2,331.0 1030.9,339.6 1040.6,348.1 1050.3,339.5 1060.0,348.0" fill="none" stroke="#4a9eff" stroke-width="0.6" opacity="0.15"/>
<polyline points="90.0,512.0 99.7,505.6 109.4,498.7 119.1,492.3 128.8,499.3 138.5,492.2 148.2,484.6 157.9,477.5 167.6,484.6 177.3,491.7 187.0,498.6 196.7,491.2 206.4,484.4 216.1,491.5 225.8,484.4 235.5,477.9 245.2,471.0 254.9,478.2 264.6,471.6 274.3,464.8 284.0,457.8 293.7,465.1 303.4,457.3 313.1,450.1 322.8,442.8 332.5,435.7 342.2,443.2 351.9,436.3 361.6,429.1 371.3,421.7 381.0,429.3 390.7,422.0 400.4,429.7 410.1,437.3 419.8,430.2 429.5,422.3 439.2,415.6 448.9,408.1 458.6,400.1 468.3,392.9 478.0,384.2 487.7,376.1 497.4,367.7 507.1,360.6 516.8,353.1 526.5,344.1 536.2,336.1 545.9,344.6 555.6,336.5 565.3,328.5 575.0,319.8 584.7,310.5 594.4,319.3 604.1,310.8 613.8,302.1 623.5,293.0 633.2,284.0 642.9,275.8 652.6,285.0 662.3,294.0 672.0,302.9 681.7,311.8 691.4,320.6 701.1,312.5 710.8,304.4 720.5,295.7 730.2,304.6 739.9,313.5 749.6,322.2 759.3,313.5 769.0,322.2 778.7,313.4 788.4,304.5 798.1,313.4 807.8,305.0 817.5,296.3 827.2,287.5 836.9,296.5 846.6,287.0 856.3,296.0 866.0,286.6 875.7,295.6 885.4,286.1 895.1,277.0 904.8,267.7 914.5,277.0 924.2,286.1 933.9,295.1 943.6,286.1 953.3,295.1 963.0,286.2 972.7,295.2 982.4,304.1 992.1,313.0 1001.8,321.7 1011.5,330.4 1021.2,322.1 1030.9,330.8 1040.6,339.4 1050.3,347.9 1060.0,338.8" fill="none" stroke="#ff6bd5" stroke-width="0.6" opacity="0.15"/>
<polyline points="90.0,512.0 99.7,505.0 109.4,511.8 119.1,504.8 128.8,511.7 138.5,505.2 148.2,499.0 157.9,505.9 167.6,512.7 177.3,505.3 187.0,498.4 196.7,491.9 206.4,485.2 216.1,478.4 225.8,471.1 235.5,478.3 245.2,470.6 254.9,464.2 264.6,456.9 274.3,449.9 284.0,442.1 293.7,434.7 303.4,426.8 313.1,419.0 322.8,411.2 332.5,419.0 342.2,411.7 351.9,419.5 361.6,411.1 371.3,418.9 381.0,411.6 390.7,403.6 400.4,396.1 410.1,388.4 419.8,396.4 429.5,388.7 439.2,396.7 448.9,389.0 458.6,381.9 468.3,373.6 478.0,365.5 487.7,356.3 497.4,364.6 507.1,356.0 516.8,347.6 526.5,339.5 536.2,348.0 545.9,339.8 555.6,348.2 565.3,356.7 575.0,365.0 584.7,373.2 594.4,381.4 604.1,389.5 613.8,381.6 623.5,389.7 633.2,382.3 642.9,390.3 652.6,382.3 662.3,374.5 672.0,366.5 681.7,358.0 691.4,366.3 701.1,357.6 710.8,365.9 720.5,374.2 730.2,366.4 739.9,358.1 749.6,350.4 759.3,341.1 769.0,349.6 778.7,340.7 788.4,349.2 798.1,357.6 807.8,365.9 817.5,374.2 827.2,365.9 836.9,358.2 846.6,366.5 856.3,357.8 866.0,349.6 875.7,340.9 885.4,332.1 895.1,340.7 904.8,349.1 914.5,341.1 924.2,349.6 933.9,341.0 943.6,349.5 953.3,342.0 963.0,350.5 972.7,358.8 982.4,350.4 992.1,358.8 1001.8,350.3 1011.5,358.7 1021.2,350.2 1030.9,342.0 1040.6,334.0 1050.3,342.6 1060.0,333.9" fill="none" stroke="#ffec6b" stroke-width="0.6" opacity="0.15"/>
<polyline points="90.0,512.0 99.7,518.7 109.4,512.2 119.1,505.0 128.8,497.4 138.5,504.3 148.2,497.1 157.9,490.3 167.6,497.3 177.3,504.2 187.0,511.1 196.7,517.8 206.4,511.2 216.1,504.8 225.8,498.1 235.5,491.1 245.2,483.4 254.9,476.6 264.6,469.7 274.3,461.6 284.0,468.9 293.7,476.1 303.4,483.2 313.1,490.3 322.8,497.3 332.5,490.1 342.2,482.2 351.9,489.3 361.6,481.9 371.3,489.0 381.0,482.1 390.7,475.2 400.4,482.4 410.1,475.4 419.8,482.5 429.5,475.3 439.2,467.7 448.9,460.2 458.6,467.4 468.3,474.7 478.0,467.7 487.7,460.5 497.4,453.6 507.1,460.9 516.8,453.8 526.5,461.2 536.2,454.0 545.9,461.4 555.6,468.6 565.3,461.6 575.0,468.9 584.7,461.7 594.4,469.0 604.1,461.7 613.8,468.9 623.5,461.7 633.2,469.0 642.9,462.1 652.6,454.0 662.3,446.5 672.0,438.6 681.7,430.7 691.4,438.3 701.1,445.8 710.8,453.2 720.5,446.1 730.2,453.5 739.9,460.9 749.6,468.2 759.3,461.2 769.0,453.9 778.7,446.3 788.4,439.5 798.1,431.5 807.8,424.0 817.5,416.0 827.2,423.7 836.9,431.4 846.6,424.5 856.3,416.7 866.0,424.4 875.7,417.8 885.4,410.4 895.1,402.6 904.8,394.5 914.5,386.3 924.2,377.9 933.9,370.3 943.6,362.4 953.3,354.7 963.0,346.6 972.7,338.8 982.4,347.3 992.1,338.8 1001.8,330.5 1011.5,339.1 1021.2,330.9 1030.9,339.4 1040.6,331.5 1050.3,340.1 1060.0,331.2" fill="none" stroke="#ff6b9f" stroke-width="0.6" opacity="0.15"/>
<polyline points="90.0,512.0 99.7,518.7 109.4,511.8 119.1,504.7 128.8,511.5 138.5,518.3 148.2,525.0 157.9,518.9 167.6,512.2 177.3,505.1 187.0,498.1 196.7,505.0 206.4,498.2 216.1,490.8 225.8,497.8 235.5,490.5 245.2,483.7 254.9,477.1 264.6,484.2 274.3,491.3 284.0,484.2 293.7,491.3 303.4,484.7 313.1,477.3 322.8,470.6 332.5,463.2 342.2,470.4 351.9,463.3 361.6,455.9 371.3,448.0 381.0,441.2 390.7,433.3 400.4,425.8 410.1,433.4 419.8,425.4 429.5,417.8 439.2,409.5 448.9,417.3 458.6,409.3 468.3,401.4 478.0,393.6 487.7,401.6 497.4,393.3 507.1,401.2 516.8,409.1 526.5,416.9 536.2,424.6 545.9,416.7 555.6,408.7 565.3,416.5 575.0,424.2 584.7,431.8 594.4,424.7 604.1,417.2 613.8,424.9 623.5,432.6 633.2,440.1 642.9,432.6 652.6,440.2 662.3,432.2 672.0,423.9 681.7,431.6 691.4,423.1 701.1,430.8 710.8,423.7 720.5,415.4 730.2,407.8 739.9,400.3 749.6,392.5 759.3,384.8 769.0,392.8 778.7,384.6 788.4,392.6 798.1,384.3 807.8,375.9 817.5,367.5 827.2,375.7 836.9,383.8 846.6,376.1 856.3,368.5 866.0,360.1 875.7,368.4 885.4,360.6 895.1,368.9 904.8,360.2 914.5,368.4 924.2,376.7 933.9,369.0 943.6,377.2 953.3,385.3 963.0,377.6 972.7,370.3 982.4,362.7 992.1,354.4 1001.8,345.9 1011.5,337.3 1021.2,345.8 1030.9,354.3 1040.6,345.9 1050.3,337.8 1060.0,328.9" fill="none" stroke="#4a9eff" stroke-width="0.6" opacity="0.15"/>
<polyline points="90.0,512.0 99.7,505.2 109.4,498.3 119.1,491.2 128.8,484.1 138.5,476.6 148.2,469.1 157.9,476.3 167.6,469.5 177.3,462.2 187.0,455.3 196.7,447.8 206.4,455.2 216.1,448.0 225.8,455.4 235.5,448.2 245.2,440.9 254.9,432.9 264.6,440.4 274.3,433.0 284.0,440.6 293.7,448.0 303.4,455.5 313.1,448.2 322.8,455.7 332.5,448.5 342.2,440.1 351.9,432.8 361.6,440.4 371.3,433.3 381.0,425.5 390.7,433.1 400.4,425.0 410.1,417.1 419.8,410.5 429.5,402.8 439.2,395.4 448.9,403.3 458.6,395.2 468.3,388.1 478.0,380.3 487.7,372.2 497.4,364.2 507.1,356.1 516.8,347.9 526.5,356.3 536.2,364.6 545.9,372.9 555.6,364.2 565.3,356.3 575.0,347.5 584.7,356.0 594.4,364.3 604.1,372.5 613.8,380.7 623.5,373.3 633.2,381.5 642.9,389.6 652.6,381.5 662.3,389.6 672.0,381.9 681.7,373.6 691.4,365.9 701.1,357.9 710.8,366.2 720.5,357.8 730.2,349.8 739.9,358.2 749.6,349.7 759.3,341.9 769.0,334.0 778.7,342.5 788.4,334.2 798.1,325.9 807.8,334.5 817.5,325.9 827.2,317.5 836.9,326.2 846.6,334.8 856.3,326.1 866.0,318.0 875.7,326.7 885.4,318.5 895.1,327.2 904.8,318.3 914.5,310.0 924.2,301.6 933.9,310.5 943.6,319.3 953.3,328.0 963.0,319.8 972.7,311.1 982.4,319.9 992.1,328.5 1001.8,337.2 1011.5,329.3 1021.2,337.9 1030.9,328.2 1040.6,319.0 1050.3,310.0 1060.0,318.8" fill="none" stroke="#ff9f6b" stroke-width="0.6" opacity="0.15"/>
<polyline points="90.0,512.0 99.7,505.6 109.4,498.3 119.1,491.3 128.8,498.2 138.5,505.1 148.2,498.1 157.9,505.0 167.6,497.7 177.3,490.3 187.0,483.1 196.7,476.2 206.4,469.3 216.1,476.5 225.8,483.6 235.5,476.8 245.2,469.9 254.9,477.1 264.6,484.2 274.3,491.3 284.0,484.2 293.7,476.7 303.4,469.9 313.1,477.1 322.8,484.2 332.5,491.2 342.2,483.9 351.9,477.2 361.6,469.7 371.3,462.9 381.0,455.1 390.7,462.4 400.4,455.2 410.1,447.6 419.8,440.9 429.5,433.2 439.2,425.5 448.9,433.2 458.6,425.9 468.3,419.3 478.0,411.6 487.7,419.4 497.4,427.1 507.1,419.2 516.8,410.8 526.5,404.0 536.2,396.2 545.9,388.6 555.6,396.6 565.3,389.2 575.0,381.5 584.7,373.3 594.4,381.5 604.1,373.3 613.8,381.5 623.5,389.6 633.2,382.0 642.9,390.1 652.6,382.3 662.3,374.3 672.0,366.1 681.7,358.4 691.4,349.9 701.1,358.3 710.8,350.1 720.5,358.5 730.2,350.4 739.9,358.8 749.6,350.7 759.3,342.1 769.0,333.3 778.7,324.9 788.4,333.5 798.1,342.1 807.8,333.9 817.5,342.4 827.2,334.1 836.9,325.6 846.6,334.2 856.3,342.7 866.0,333.9 875.7,325.2 885.4,333.9 895.1,342.4 904.8,350.9 914.5,359.3 924.2,367.6 933.9,375.8 943.6,367.7 953.3,359.2 963.0,351.0 972.7,341.9 982.4,350.4 992.1,341.6 1001.8,333.3 1011.5,341.8 1021.2,350.3 1030.9,341.9 1040.6,333.0 1050.3,324.2 1060.0,315.4" fill="none" stroke="#ffec6b" stroke-width="0.6" opacity="0.15"/>
<polyline points="90.0,512.0 99.7,518.7 109.4,525.4 119.1,519.1 128.8,512.4 138.5,505.5 148.2,512.3 157.9,505.3 167.6,498.6 177.3,505.5 187.0,498.3 196.7,505.2 206.4,497.9 216.1,491.4 225.8,498.4 235.5,490.9 245.2,483.3 254.9,490.4 264.6,482.6 274.3,475.8 284.0,483.0 293.7,490.0 303.4,483.1 313.1,490.2 322.8,482.6 332.5,475.3 342.2,467.7 351.9,460.5 361.6,453.5 371.3,446.3 381.0,438.7 390.7,431.1 400.4,423.2 410.1,430.9 419.8,438.5 429.5,431.4 439.2,438.9 448.9,431.1 458.6,423.9 468.3,416.6 478.0,409.1 487.7,401.2 497.4,409.1 507.1,416.9 516.8,424.6 526.5,432.2 536.2,424.8 545.9,417.0 555.6,424.7 565.3,417.4 575.0,425.1 584.7,432.8 594.4,424.9 604.1,417.5 613.8,425.2 623.5,432.8 633.2,425.4 642.9,418.7 652.6,426.4 662.3,418.7 672.0,426.4 681.7,419.1 691.4,411.3 701.1,402.8 710.8,410.7 720.5,402.6 730.2,410.4 739.9,418.2 749.6,425.9 759.3,418.6 769.0,410.1 778.7,402.4 788.4,394.3 798.1,386.7 807.8,378.5 817.5,386.7 827.2,394.7 836.9,402.6 846.6,394.8 856.3,402.8 866.0,410.6 875.7,402.9 885.4,395.3 895.1,387.3 904.8,395.3 914.5,387.6 924.2,379.6 933.9,371.2 943.6,363.1 953.3,354.2 963.0,346.0 972.7,337.7 982.4,329.0 992.1,321.0 1001.8,313.1 1011.5,321.8 1021.2,330.5 1030.9,339.1 1040.6,331.1 1050.3,322.6 1060.0,314.2" fill="none" stroke="#6bd5ff" stroke-width="0.6" opacity="0.15"/>
<polyline points="90.0,512.0 99.7,505.3 109.4,498.4 119.1,491.5 128.8,484.1 138.5,477.4 148.2,470.5 157.9,463.4 167.6,455.6 177.3,447.9 187.0,440.5 196.7,432.8 206.4,440.4 216.1,432.8 225.8,424.1 235.5,431.7 245.2,439.3 254.9,432.6 264.6,440.1 274.3,447.6 284.0,439.9 293.7,447.3 303.4,454.8 313.1,462.1 322.8,454.9 332.5,462.2 342.2,454.9 351.9,462.2 361.6,455.4 371.3,462.7 381.0,455.0 390.7,447.2 400.4,454.7 410.1,462.0 419.8,454.7 429.5,447.8 439.2,455.2 448.9,447.7 458.6,455.1 468.3,447.5 478.0,454.9 487.7,462.2 497.4,454.8 507.1,447.3 516.8,454.8 526.5,462.1 536.2,469.4 545.9,462.5 555.6,455.9 565.3,463.3 575.0,470.5 584.7,463.4 594.4,470.7 604.1,477.9 613.8,470.3 623.5,462.6 633.2,469.9 642.9,462.6 652.6,455.9 662.3,448.6 672.0,456.0 681.7,448.9 691.4,441.7 701.1,434.3 710.8,426.5 720.5,418.3 730.2,410.1 739.9,417.8 749.6,410.7 759.3,418.5 769.0,410.8 778.7,403.7 788.4,411.5 798.1,403.3 807.8,411.2 817.5,403.4 827.2,411.3 836.9,403.5 846.6,411.4 856.3,403.7 866.0,395.8 875.7,403.7 885.4,396.7 895.1,388.5 904.8,380.8 914.5,372.5 924.2,365.1 933.9,356.2 943.6,347.9 953.3,339.4 963.0,329.8 972.7,321.2 982.4,311.7 992.1,320.5 1001.8,329.2 1011.5,320.3 1021.2,312.3 1030.9,321.1 1040.6,312.9 1050.3,321.6 1060.0,312.3" fill="none" stroke="#ffec6b" stroke-width="0.6" opacity="0.15"/>
<polyline points="90.0,512.0 99.7,518.7 109.4,525.4 119.1,532.1 128.8,538.7 138.5,531.9 148.2,525.0 157.9,531.6 167.6,525.7 177.3,532.3 187.0,525.3 196.7,532.0 206.4,525.5 216.1,518.7 225.8,512.1 235.5,504.9 245.2,511.8 254.9,518.5 264.6,525.3 274.3,531.9 284.0,525.2 293.7,518.3 303.4,511.3 313.1,518.1 322.8,511.1 332.5,504.4 342.2,511.3 351.9,504.9 361.6,498.4 371.3,491.6 381.0,498.6 390.7,491.9 400.4,485.1 410.1,478.0 419.8,485.1 429.5,478.3 439.2,470.9 448.9,478.1 458.6,470.6 468.3,463.9 478.0,456.2 487.7,449.6 497.4,442.3 507.1,435.5 516.8,443.1 526.5,435.9 536.2,428.8 545.9,420.7 555.6,413.4 565.3,405.4 575.0,398.1 584.7,406.1 594.4,398.1 604.1,390.4 613.8,398.4 623.5,406.3 633.2,414.1 642.9,406.6 652.6,414.5 662.3,406.4 672.0,399.2 681.7,391.5 691.4,383.7 701.1,391.8 710.8,399.8 720.5,391.8 730.2,399.8 739.9,407.7 749.6,400.3 759.3,393.0 769.0,385.1 778.7,393.1 788.4,401.1 798.1,393.1 807.8,385.2 817.5,377.4 827.2,369.2 836.9,377.4 846.6,369.7 856.3,361.1 866.0,353.3 875.7,361.6 885.4,354.3 895.1,346.3 904.8,337.4 914.5,327.9 924.2,319.2 933.9,310.4 943.6,301.3 953.3,292.1 963.0,301.0 972.7,309.9 982.4,301.4 992.1,310.3 1001.8,319.1 1011.5,310.7 1021.2,319.5 1030.9,311.4 1040.6,302.9 1050.3,311.7 1060.0,303.5" fill="none" stroke="#4a9eff" stroke-width="0.6" opacity="0.15"/>
<polyline points="90.0,512.0 99.7,518.7 109.4,525.4 119.1,532.1 128.8,525.8 138.5,532.4 148.2,539.0 157.9,545.5 167.6,539.2 177.3,532.8 187.0,526.6 196.7,519.6 206.4,513.4 216.1,506.8 225.8,500.1 235.5,492.8 245.2,485.6 254.9,478.9 264.6,486.0 274.3,479.0 284.0,486.1 293.7,478.2 303.4,485.4 313.1,492.4 322.8,485.0 332.5,477.8 342.2,470.9 351.9,463.9 361.6,456.4 371.3,463.8 381.0,457.0 390.7,449.9 400.4,457.2 410.1,449.2 419.8,441.4 429.5,434.4 439.2,427.0 448.9,434.6 458.6,427.5 468.3,419.4 478.0,411.5 487.7,419.3 497.4,411.9 507.1,419.7 516.8,412.0 526.5,404.4 536.2,396.6 545.9,404.5 555.6,396.4 565.3,388.0 575.0,378.7 584.7,370.4 594.4,363.1 604.1,355.4 613.8,347.1 623.5,339.5 633.2,348.0 642.9,356.4 652.6,364.8 662.3,356.4 672.0,347.9 681.7,340.5 691.4,349.0 701.1,357.4 710.8,349.4 720.5,341.2 730.2,332.8 739.9,341.3 749.6,332.9 759.3,341.4 769.0,349.9 778.7,341.5 788.4,333.4 798.1,325.0 807.8,315.7 817.5,324.4 827.2,316.6 836.9,307.7 846.6,316.5 856.3,325.2 866.0,316.0 875.7,324.7 885.4,315.9 895.1,308.0 904.8,299.6 914.5,308.5 924.2,300.2 933.9,291.0 943.6,300.0 953.3,291.0 963.0,300.0 972.7,308.8 982.4,317.7 992.1,308.8 1001.8,300.2 1011.5,291.0 1021.2,300.0 1030.9,308.9 1040.6,300.1 1050.3,309.0 1060.0,300.6" fill="none" stroke="#4a9eff" stroke-width="0.6" opacity="0.15"/>
<polyline points="90.0,512.0 99.7,504.7 109.4,497.6 119.1,490.8 128.8,483.6 138.5,476.6 148.2,469.7 157.9,462.1 167.6,455.2 177.3,462.6 187.0,455.7 196.7,463.0 206.4,470.3 216.1,462.7 225.8,470.0 235.5,462.6 245.2,455.3 254.9,447.8 264.6,455.2 274.3,448.1 284.0,455.5 293.7,448.7 303.4,456.1 313.1,463.4 322.8,470.6 332.5,477.8 342.2,470.6 351.9,463.5 361.6,470.7 371.3,464.1 381.0,471.4 390.7,464.1 400.4,471.3 410.1,478.5 419.8,471.0 429.5,464.3 439.2,456.6 448.9,449.3 458.6,442.6 468.3,450.1 478.0,442.8 487.7,450.3 497.4,457.7 507.1,465.0 516.8,457.9 526.5,450.2 536.2,457.6 545.9,450.2 555.6,442.5 565.3,449.9 575.0,443.0 584.7,435.2 594.4,427.8 604.1,435.4 613.8,443.0 623.5,450.4 633.2,442.8 642.9,435.2 652.6,427.1 662.3,434.7 672.0,427.9 681.7,419.9 691.4,412.1 701.1,404.7 710.8,397.0 720.5,404.9 730.2,397.3 739.9,405.2 749.6,397.5 759.3,390.2 769.0,398.1 778.7,406.1 788.4,398.7 798.1,390.6 807.8,398.6 817.5,390.4 827.2,382.2 836.9,390.3 846.6,398.3 856.3,390.7 866.0,398.7 875.7,406.6 885.4,398.3 895.1,390.0 904.8,381.8 914.5,373.8 924.2,365.8 933.9,357.7 943.6,366.0 953.3,358.0 963.0,366.3 972.7,358.3 982.4,366.6 992.1,358.4 1001.8,350.0 1011.5,341.6 1021.2,332.5 1030.9,323.5 1040.6,315.1 1050.3,306.7 1060.0,299.0" fill="none" stroke="#6bd5ff" stroke-width="0.6" opacity="0.15"/>
<polyline points="90.0,512.0 99.7,518.7 109.4,525.4 119.1,532.1 128.8,525.5 138.5,518.5 148.2,511.5 157.9,518.3 167.6,525.0 177.3,531.6 187.0,525.2 196.7,518.9 206.4,512.1 216.1,506.0 225.8,498.8 235.5,505.7 245.2,512.5 254.9,505.0 264.6,498.5 274.3,505.4 284.0,498.9 293.7,492.5 303.4,485.7 313.1,479.3 322.8,472.2 332.5,464.1 342.2,471.4 351.9,478.6 361.6,471.8 371.3,465.0 381.0,458.0 390.7,450.0 400.4,457.4 410.1,464.7 419.8,471.9 429.5,464.7 439.2,457.8 448.9,450.4 458.6,442.9 468.3,450.4 478.0,442.3 487.7,434.8 497.4,427.1 507.1,419.8 516.8,427.4 526.5,435.1 536.2,427.2 545.9,420.2 555.6,427.9 565.3,420.1 575.0,427.8 584.7,435.4 594.4,427.8 604.1,435.4 613.8,427.7 623.5,419.8 633.2,427.5 642.9,435.1 652.6,427.9 662.3,435.6 672.0,443.1 681.7,450.5 691.4,443.6 701.1,436.9 710.8,429.4 720.5,421.3 730.2,413.2 739.9,405.0 749.6,397.0 759.3,404.9 769.0,396.9 778.7,388.8 788.4,381.1 798.1,373.0 807.8,381.1 817.5,389.2 827.2,397.2 836.9,388.9 846.6,380.5 856.3,372.5 866.0,380.6 875.7,372.0 885.4,363.9 895.1,372.1 904.8,364.1 914.5,356.3 924.2,348.2 933.9,339.4 943.6,330.6 953.3,339.2 963.0,331.2 972.7,323.1 982.4,331.8 992.1,323.4 1001.8,315.2 1011.5,324.0 1021.2,314.9 1030.9,323.6 1040.6,314.4 1050.3,305.4 1060.0,297.1" fill="none" stroke="#ffd36b" stroke-width="0.6" opacity="0.15"/>
<polyline points="90.0,512.0 99.7,504.9 109.4,497.9 119.1,504.8 128.8,497.5 138.5,490.9 148.2,497.9 157.9,491.5 167.6,498.5 177.3,505.4 187.0,498.3 196.7,491.5 206.4,484.4 216.1,491.5 225.8,484.1 235.5,491.1 245.2,484.6 254.9,477.3 264.6,484.4 274.3,477.7 284.0,470.2 293.7,463.3 303.4,470.5 313.1,477.7 322.8,470.4 332.5,462.8 342.2,456.2 351.9,449.4 361.6,442.1 371.3,449.5 381.0,441.5 390.7,433.7 400.4,441.3 410.1,448.8 419.8,456.2 429.5,448.4 439.2,441.3 448.9,433.8 458.6,426.3 468.3,418.1 478.0,410.4 487.7,402.2 497.4,410.1 507.1,417.8 516.8,410.4 526.5,402.1 536.2,394.1 545.9,386.0 555.6,394.0 565.3,401.9 575.0,394.5 584.7,387.5 594.4,395.5 604.1,403.4 613.8,411.3 623.5,419.1 633.2,426.8 642.9,419.2 652.6,411.5 662.3,419.3 672.0,411.4 681.7,403.6 691.4,396.1 701.1,404.1 710.8,411.9 720.5,419.7 730.2,411.8 739.9,419.6 749.6,411.6 759.3,419.4 769.0,411.5 778.7,403.2 788.4,411.0 798.1,403.6 807.8,395.4 817.5,387.3 827.2,395.3 836.9,387.5 846.6,379.5 856.3,372.3 866.0,364.3 875.7,355.8 885.4,346.9 895.1,338.5 904.8,347.0 914.5,338.7 924.2,330.0 933.9,321.3 943.6,312.1 953.3,303.0 963.0,311.8 972.7,302.2 982.4,311.1 992.1,319.9 1001.8,311.6 1011.5,302.8 1021.2,311.7 1030.9,302.9 1040.6,293.7 1050.3,285.6 1060.0,294.6" fill="none" stroke="#6bd5ff" stroke-width="0.6" opacity="0.15"/>
<polyline points="90.0,512.0 99.7,504.9 109.4,511.8 119.1,504.9 128.8,511.8 138.5,505.5 148.2,498.5 157.9,491.6 167.6,484.1 177.3,491.1 187.0,484.1 196.7,491.2 206.4,498.2 216.1,490.9 225.8,497.8 235.5,491.0 245.2,483.3 254.9,476.2 264.6,483.3 274.3,490.4 284.0,483.5 293.7,476.2 303.4,469.1 313.1,461.2 322.8,453.9 332.5,461.3 342.2,453.6 351.9,446.3 361.6,453.8 371.3,446.7 381.0,454.2 390.7,446.6 400.4,439.3 410.1,431.6 419.8,439.2 429.5,431.4 439.2,423.8 448.9,416.2 458.6,408.3 468.3,399.9 478.0,392.2 487.7,400.2 497.4,408.1 507.1,415.9 516.8,408.8 526.5,401.1 536.2,409.0 545.9,416.8 555.6,424.5 565.3,417.0 575.0,424.7 584.7,417.1 594.4,409.9 604.1,417.7 613.8,409.6 623.5,402.0 633.2,393.2 642.9,384.8 652.6,376.4 662.3,368.2 672.0,376.4 681.7,368.2 691.4,359.9 701.1,368.2 710.8,359.9 720.5,350.9 730.2,342.7 739.9,351.2 749.6,359.6 759.3,350.7 769.0,359.1 778.7,350.7 788.4,341.9 798.1,334.0 807.8,325.6 817.5,317.2 827.2,308.0 836.9,316.8 846.6,325.5 856.3,317.5 866.0,308.6 875.7,317.4 885.4,326.1 895.1,334.8 904.8,326.4 914.5,317.4 924.2,309.4 933.9,318.2 943.6,309.5 953.3,318.3 963.0,309.0 972.7,317.8 982.4,309.1 992.1,299.4 1001.8,290.9 1011.5,281.1 1021.2,272.4 1030.9,281.6 1040.6,290.6 1050.3,281.9 1060.0,291.0" fill="none" stroke="#ffec6b" stroke-width="0.6" opacity="0.15"/>
<polyline points="90.0,512.0 99.7,518.7 109.4,525.4 119.1,532.1 128.8,525.3 138.5,518.5 148.2,511.6 157.9,504.4 167.6,511.3 177.3,504.6 187.0,511.4 196.7,505.3 206.4,498.6 216.1,505.5 225.8,498.8 235.5,492.4 245.2,485.8 254.9,478.4 264.6,485.5 274.3,478.8 284.0,485.9 293.7,493.0 303.4,486.3 313.1,493.3 322.8,486.0 332.5,478.7 342.2,471.8 351.9,464.4 361.6,471.6 371.3,464.6 381.0,457.1 390.7,450.2 400.4,457.6 410.1,464.9 419.8,457.6 429.5,450.2 439.2,442.8 448.9,435.4 458.6,428.0 468.3,435.6 478.0,428.5 487.7,420.9 497.4,428.6 507.1,421.2 516.8,413.4 526.5,421.2 536.2,428.9 545.9,421.3 555.6,413.7 565.3,406.6 575.0,398.4 584.7,406.3 594.4,414.2 604.1,406.9 613.8,414.7 623.5,407.0 633.2,399.6 642.9,407.5 652.6,399.7 662.3,392.4 672.0,385.4 681.7,378.0 691.4,386.1 701.1,378.3 710.8,369.8 720.5,362.3 730.2,354.3 739.9,345.7 749.6,337.2 759.3,345.7 769.0,354.2 778.7,344.9 788.4,336.4 798.1,328.5 807.8,319.4 817.5,328.1 827.2,319.6 836.9,328.3 846.6,336.9 856.3,328.1 866.0,319.1 875.7,327.8 885.4,336.4 895.1,344.9 904.8,353.3 914.5,344.1 924.2,352.5 933.9,360.9 943.6,351.6 953.3,343.5 963.0,335.1 972.7,326.4 982.4,318.0 992.1,309.9 1001.8,300.5 1011.5,291.4 1021.2,300.4 1030.9,291.0 1040.6,300.0 1050.3,291.4 1060.0,283.0" fill="none" stroke="#6bd5ff" stroke-width="0.6" opacity="0.15"/>
<polyline points="90.0,512.0 99.7,518.7 109.4,511.7 119.1,518.5 128.8,511.5 138.5,504.5 148.2,511.4 157.9,504.4 167.6,511.3 177.3,504.2 187.0,497.3 196.7,490.3 206.4,497.2 216.1,504.2 225.8,497.0 235.5,490.5 245.2,483.3 254.9,476.5 264.6,469.4 274.3,476.6 284.0,469.4 293.7,462.6 303.4,469.8 313.1,462.6 322.8,456.2 332.5,449.0 342.2,441.6 351.9,449.1 361.6,456.5 371.3,449.7 381.0,457.1 390.7,464.4 400.4,471.7 410.1,464.7 419.8,471.9 429.5,465.2 439.2,458.3 448.9,451.3 458.6,443.5 468.3,436.4 478.0,443.9 487.7,437.1 497.4,429.6 507.1,422.1 516.8,414.5 526.5,422.3 536.2,414.1 545.9,406.2 555.6,414.0 565.3,406.0 575.0,397.6 584.7,389.4 594.4,381.0 604.1,373.2 613.8,364.7 623.5,356.6 633.2,348.3 642.9,339.4 652.6,347.9 662.3,339.9 672.0,331.5 681.7,340.1 691.4,331.3 701.1,322.8 710.8,331.4 720.5,340.0 730.2,331.7 739.9,340.3 749.6,348.8 759.3,340.5 769.0,349.0 778.7,340.9 788.4,349.3 798.1,357.7 807.8,366.1 817.5,358.0 827.2,366.3 836.9,374.5 846.6,366.2 856.3,358.5 866.0,366.8 875.7,358.7 885.4,367.0 895.1,359.4 904.8,367.7 914.5,358.9 924.2,367.2 933.9,359.6 943.6,350.6 953.3,341.9 963.0,333.5 972.7,324.6 982.4,333.3 992.1,324.4 1001.8,315.8 1011.5,324.5 1021.2,315.7 1030.9,307.8 1040.6,299.1 1050.3,290.0 1060.0,281.0" fill="none" stroke="#6bd5ff" stroke-width="0.6" opacity="0.15"/>
<polyline points="90.0,512.0 99.7,518.7 109.4,512.1 119.1,505.2 128.8,512.0 138.5,518.8 148.2,512.0 157.9,505.3 167.6,498.6 177.3,491.6 187.0,484.2 196.7,477.3 206.4,470.4 216.1,477.6 225.8,484.7 235.5,491.8 245.2,498.7 254.9,505.7 264.6,512.5 274.3,506.5 284.0,499.7 293.7,492.8 303.4,486.1 313.1,493.1 322.8,485.3 332.5,479.0 342.2,486.1 351.9,478.9 361.6,486.0 371.3,493.1 381.0,486.4 390.7,493.4 400.4,486.1 410.1,478.9 419.8,471.6 429.5,478.8 439.2,471.1 448.9,464.0 458.6,456.1 468.3,448.4 478.0,455.8 487.7,463.2 497.4,456.1 507.1,448.6 516.8,456.0 526.5,448.2 536.2,455.6 545.9,462.9 555.6,456.1 565.3,448.8 575.0,456.2 584.7,448.5 594.4,441.7 604.1,449.2 613.8,456.6 623.5,449.4 633.2,441.8 642.9,434.1 652.6,441.7 662.3,434.5 672.0,442.1 681.7,435.0 691.4,426.8 701.1,418.4 710.8,410.4 720.5,403.4 730.2,395.6 739.9,387.5 749.6,379.0 759.3,371.6 769.0,379.7 778.7,371.0 788.4,362.3 798.1,354.4 807.8,362.7 817.5,354.7 827.2,363.1 836.9,355.0 846.6,347.4 856.3,338.5 866.0,330.9 875.7,321.8 885.4,330.4 895.1,322.6 904.8,314.2 914.5,322.9 924.2,331.6 933.9,340.2 943.6,331.9 953.3,323.2 963.0,314.2 972.7,323.0 982.4,315.7 992.1,305.6 1001.8,296.6 1011.5,305.6 1021.2,297.3 1030.9,306.2 1040.6,297.8 1050.3,288.3 1060.0,278.6" fill="none" stroke="#ff6b6b" stroke-width="0.6" opacity="0.15"/>
<polyline points="90.0,512.0 99.7,518.7 109.4,511.9 119.1,505.3 128.8,498.6 138.5,491.4 148.2,484.7 157.9,491.7 167.6,498.7 177.3,492.1 187.0,499.1 196.7,506.0 206.4,512.8 216.1,519.6 225.8,526.3 235.5,532.9 245.2,526.6 254.9,519.6 264.6,513.1 274.3,506.4 284.0,513.2 293.7,506.2 303.4,499.4 313.1,492.3 322.8,485.5 332.5,492.5 342.2,499.5 351.9,492.3 361.6,485.0 371.3,492.0 381.0,499.0 390.7,505.9 400.4,499.5 410.1,492.0 419.8,484.9 429.5,477.7 439.2,470.3 448.9,462.9 458.6,470.2 468.3,463.2 478.0,455.5 487.7,448.5 497.4,455.9 507.1,463.3 516.8,456.2 526.5,463.5 536.2,470.8 545.9,463.1 555.6,455.8 565.3,463.1 575.0,455.9 584.7,463.2 594.4,456.2 604.1,449.7 613.8,442.7 623.5,434.8 633.2,427.8 642.9,435.4 652.6,442.9 662.3,435.6 672.0,443.2 681.7,435.6 691.4,427.8 701.1,435.4 710.8,427.7 720.5,420.4 730.2,428.1 739.9,421.2 749.6,413.5 759.3,405.7 769.0,397.0 778.7,389.2 788.4,380.6 798.1,388.7 807.8,380.3 817.5,372.7 827.2,364.1 836.9,355.4 846.6,346.6 856.3,355.0 866.0,346.9 875.7,337.7 885.4,329.3 895.1,337.9 904.8,329.5 914.5,338.1 924.2,329.7 933.9,321.5 943.6,330.2 953.3,320.9 963.0,312.3 972.7,303.4 982.4,294.9 992.1,286.4 1001.8,295.5 1011.5,286.5 1021.2,276.7 1030.9,267.8 1040.6,258.4 1050.3,267.7 1060.0,276.9" fill="none" stroke="#ffd36b" stroke-width="0.6" opacity="0.15"/>
<polyline points="90.0,512.0 99.7,505.1 109.4,511.9 119.1,505.0 128.8,497.8 138.5,490.4 148.2,497.4 157.9,504.3 167.6,497.2 177.3,489.6 187.0,496.6 196.7,503.5 206.4,510.4 216.1,517.2 225.8,510.2 235.5,503.7 245.2,510.6 254.9,503.5 264.6,510.3 274.3,517.1 284.0,511.0 293.7,504.3 303.4,497.7 313.1,491.0 322.8,484.1 332.5,477.8 342.2,470.3 351.9,463.1 361.6,455.7 371.3,447.8 381.0,440.2 390.7,432.0 400.4,423.4 410.1,431.1 419.8,423.1 429.5,414.9 439.2,407.5 448.9,399.3 458.6,391.5 468.3,383.4 478.0,391.4 487.7,383.8 497.4,391.8 507.1,383.7 516.8,375.3 526.5,366.9 536.2,375.2 545.9,367.9 555.6,359.8 565.3,351.7 575.0,343.2 584.7,334.4 594.4,342.9 604.1,334.2 613.8,342.7 623.5,351.2 633.2,343.4 642.9,351.8 652.6,343.6 662.3,334.8 672.0,343.3 681.7,334.5 691.4,325.5 701.1,317.0 710.8,308.8 720.5,317.6 730.2,308.5 739.9,299.4 749.6,291.1 759.3,300.0 769.0,292.2 778.7,301.1 788.4,292.6 798.1,301.6 807.8,292.6 817.5,301.6 827.2,310.5 836.9,301.2 846.6,291.9 856.3,282.9 866.0,291.9 875.7,282.2 885.4,272.7 895.1,263.6 904.8,254.5 914.5,263.9 924.2,273.1 933.9,282.3 943.6,272.6 953.3,281.8 963.0,290.9 972.7,299.9 982.4,291.6 992.1,282.6 1001.8,291.7 1011.5,300.6 1021.2,292.3 1030.9,301.3 1040.6,292.2 1050.3,283.4 1060.0,274.2" fill="none" stroke="#9fff6b" stroke-width="0.6" opacity="0.15"/>
<polyline points="90.0,512.0 99.7,504.9 109.4,511.7 119.1,518.5 128.8,525.2 138.5,518.5 148.2,525.2 157.9,518.9 167.6,525.6 177.3,518.9 187.0,525.6 196.7,519.1 206.4,525.8 216.1,518.7 225.8,525.4 235.5,518.8 245.2,525.5 254.9,518.9 264.6,525.6 274.3,519.4 284.0,512.9 293.7,506.1 303.4,513.0 313.1,506.2 322.8,513.0 332.5,506.4 342.2,513.2 351.9,519.9 361.6,513.3 371.3,506.6 381.0,499.8 390.7,492.4 400.4,485.2 410.1,478.0 419.8,471.0 429.5,478.2 439.2,471.1 448.9,464.5 458.6,471.7 468.3,464.2 478.0,457.9 487.7,450.1 497.4,442.2 507.1,434.2 516.8,426.9 526.5,434.5 536.2,427.0 545.9,434.6 555.6,426.9 565.3,419.4 575.0,411.4 584.7,419.1 594.4,411.8 604.1,419.6 613.8,412.0 623.5,404.4 633.2,412.2 642.9,420.0 652.6,427.7 662.3,435.3 672.0,442.9 681.7,450.3 691.4,443.2 701.1,435.7 710.8,429.0 720.5,436.6 730.2,444.1 739.9,451.6 749.6,444.9 759.3,437.8 769.0,430.6 778.7,423.7 788.4,415.9 798.1,408.9 807.8,401.6 817.5,393.3 827.2,401.2 836.9,409.1 846.6,401.5 856.3,394.1 866.0,386.0 875.7,378.5 885.4,386.6 895.1,394.6 904.8,385.8 914.5,377.2 924.2,385.3 933.9,376.7 943.6,368.8 953.3,360.5 963.0,352.2 972.7,343.3 982.4,335.2 992.1,327.4 1001.8,318.7 1011.5,309.5 1021.2,300.9 1030.9,292.1 1040.6,283.0 1050.3,274.4 1060.0,265.8" fill="none" stroke="#ff6b9f" stroke-width="0.6" opacity="0.15"/>
<polyline points="90.0,512.0 99.7,505.4 109.4,498.6 119.1,491.7 128.8,484.8 138.5,491.8 148.2,485.0 157.9,478.1 167.6,470.5 177.3,463.6 187.0,470.8 196.7,463.9 206.4,456.3 216.1,448.5 225.8,455.9 235.5,448.8 245.2,441.5 254.9,434.3 264.6,426.8 274.3,419.0 284.0,411.6 293.7,403.9 303.4,411.8 313.1,419.6 322.8,427.2 332.5,419.6 342.2,411.9 351.9,404.2 361.6,395.6 371.3,387.3 381.0,395.3 390.7,403.2 400.4,395.8 410.1,403.8 419.8,396.2 429.5,387.9 439.2,379.3 448.9,387.4 458.6,395.4 468.3,403.4 478.0,396.4 487.7,404.3 497.4,396.7 507.1,388.5 516.8,380.4 526.5,372.8 536.2,381.0 545.9,372.6 555.6,380.7 565.3,388.8 575.0,380.8 584.7,372.7 594.4,380.8 604.1,388.9 613.8,380.6 623.5,372.8 633.2,364.4 642.9,356.5 652.6,364.8 662.3,356.7 672.0,348.2 681.7,356.6 691.4,364.9 701.1,356.8 710.8,348.5 720.5,340.2 730.2,348.7 739.9,357.1 749.6,348.6 759.3,340.6 769.0,331.8 778.7,322.9 788.4,314.5 798.1,323.3 807.8,315.3 817.5,324.0 827.2,315.4 836.9,306.8 846.6,315.6 856.3,306.7 866.0,315.5 875.7,324.2 885.4,315.4 895.1,306.9 904.8,315.8 914.5,324.5 924.2,315.6 933.9,324.3 943.6,333.0 953.3,323.9 963.0,314.9 972.7,306.8 982.4,315.6 992.1,307.0 1001.8,315.9 1011.5,307.1 1021.2,297.5 1030.9,288.6 1040.6,279.9 1050.3,270.9 1060.0,262.0" fill="none" stroke="#ff6b9f" stroke-width="0.6" opacity="0.15"/>
<polyline points="90.0,512.0 99.7,505.4 109.4,498.3 119.1,492.0 128.8,485.3 138.5,492.4 148.2,499.3 157.9,492.7 167.6,486.0 177.3,479.3 187.0,486.4 196.7,479.6 206.4,486.7 216.1,479.4 225.8,486.5 235.5,479.8 245.2,473.0 254.9,465.7 264.6,472.9 274.3,466.3 284.0,473.5 293.7,466.7 303.4,473.9 313.1,466.7 322.8,459.1 332.5,451.5 342.2,443.6 351.9,451.1 361.6,443.9 371.3,437.2 381.0,429.4 390.7,422.1 400.4,429.8 410.1,437.4 419.8,444.9 429.5,437.2 439.2,429.4 448.9,437.0 458.6,429.5 468.3,437.1 478.0,430.0 487.7,437.6 497.4,445.1 507.1,437.0 516.8,429.7 526.5,422.1 536.2,414.4 545.9,422.1 555.6,414.7 565.3,407.1 575.0,415.0 584.7,422.7 594.4,415.2 604.1,423.0 613.8,430.6 623.5,423.1 633.2,430.8 642.9,422.7 652.6,414.8 662.3,407.2 672.0,399.4 681.7,391.4 691.4,383.3 701.1,374.8 710.8,366.5 720.5,357.8 730.2,348.6 739.9,339.8 749.6,348.2 759.3,340.0 769.0,330.9 778.7,322.2 788.4,330.9 798.1,322.9 807.8,331.6 817.5,322.4 827.2,313.6 836.9,304.6 846.6,313.4 856.3,304.5 866.0,296.5 875.7,287.6 885.4,296.7 895.1,305.6 904.8,314.4 914.5,306.1 924.2,297.6 933.9,288.3 943.6,297.3 953.3,287.8 963.0,279.1 972.7,269.6 982.4,260.9 992.1,270.2 1001.8,260.9 1011.5,252.0 1021.2,241.4 1030.9,250.9 1040.6,260.3 1050.3,269.6 1060.0,260.2" fill="none" stroke="#6bffe0" stroke-width="0.6" opacity="0.15"/>
<polyline points="90.0,512.0 99.7,505.3 109.4,512.1 119.1,518.9 128.8,512.1 138.5,518.8 148.2,525.6 157.9,532.2 167.6,525.5 177.3,519.4 187.0,512.4 196.7,519.2 206.4,525.9 216.1,519.4 225.8,512.4 235.5,504.9 245.2,498.2 254.9,505.1 264.6,511.9 274.3,505.3 284.0,512.1 293.7,505.7 303.4,512.6 313.1,505.6 322.8,512.4 332.5,505.5 342.2,512.3 351.9,505.3 361.6,512.1 371.3,518.9 381.0,525.6 390.7,532.2 400.4,525.5 410.1,518.7 419.8,511.7 429.5,505.2 439.2,498.6 448.9,491.3 458.6,484.0 468.3,476.8 478.0,469.6 487.7,462.0 497.4,469.3 507.1,461.9 516.8,469.2 526.5,462.0 536.2,453.9 545.9,461.3 555.6,468.6 565.3,461.2 575.0,454.4 584.7,447.0 594.4,439.6 604.1,431.9 613.8,424.8 623.5,432.4 633.2,424.8 642.9,417.0 652.6,409.2 662.3,402.0 672.0,394.4 681.7,402.4 691.4,395.1 701.1,386.7 710.8,394.7 720.5,402.6 730.2,395.0 739.9,387.1 749.6,379.4 759.3,371.7 769.0,363.4 778.7,371.7 788.4,379.9 798.1,371.1 807.8,362.7 817.5,371.0 827.2,362.7 836.9,353.9 846.6,362.3 856.3,353.9 866.0,345.7 875.7,336.8 885.4,345.4 895.1,337.1 904.8,328.2 914.5,336.8 924.2,345.3 933.9,337.3 943.6,329.4 953.3,321.0 963.0,329.7 972.7,320.8 982.4,312.3 992.1,304.0 1001.8,294.7 1011.5,285.7 1021.2,294.7 1030.9,284.7 1040.6,276.3 1050.3,267.7 1060.0,258.3" fill="none" stroke="#b86bff" stroke-width="0.6" opacity="0.15"/>
<polyline points="90.0,512.0 99.7,518.7 109.4,512.0 119.1,505.4 128.8,498.2 138.5,505.1 148.2,498.1 157.9,505.0 167.6,498.6 177.3,505.5 187.0,499.2 196.7,491.9 206.4,484.1 216.1,491.2 225.8,483.9 235.5,476.6 245.2,469.4 254.9,476.6 264.6,469.1 274.3,462.3 284.0,455.0 293.7,462.3 303.4,455.0 313.1,462.4 322.8,454.9 332.5,447.4 342.2,439.8 351.9,431.8 361.6,423.9 371.3,416.1 381.0,423.8 390.7,431.4 400.4,439.0 410.1,431.1 419.8,423.6 429.5,431.3 439.2,438.8 448.9,430.9 458.6,423.0 468.3,430.7 478.0,422.4 487.7,414.3 497.4,406.5 507.1,398.7 516.8,391.0 526.5,398.9 536.2,391.3 545.9,383.6 555.6,391.7 565.3,383.2 575.0,374.6 584.7,366.1 594.4,358.3 604.1,350.3 613.8,358.7 623.5,350.1 633.2,341.6 642.9,333.0 652.6,324.6 662.3,333.2 672.0,341.8 681.7,350.3 691.4,342.3 701.1,350.7 710.8,359.1 720.5,351.3 730.2,342.4 739.9,334.0 749.6,325.7 759.3,334.3 769.0,325.7 778.7,334.4 788.4,326.0 798.1,317.1 807.8,308.1 817.5,298.9 827.2,290.2 836.9,281.3 846.6,271.6 856.3,280.7 866.0,271.1 875.7,261.6 885.4,252.1 895.1,261.5 904.8,252.1 914.5,261.5 924.2,252.2 933.9,261.6 943.6,252.6 953.3,242.9 963.0,252.4 972.7,243.5 982.4,234.4 992.1,243.9 1001.8,253.4 1011.5,262.7 1021.2,253.0 1030.9,244.0 1040.6,253.5 1050.3,243.9 1060.0,253.4" fill="none" stroke="#4a9eff" stroke-width="0.6" opacity="0.15"/>
<polyline points="90.0,512.0 99.7,518.7 109.4,511.8 119.1,504.8 128.8,497.6 138.5,489.7 148.2,496.7 157.9,503.7 167.6,496.9 177.3,490.1 187.0,482.4 196.7,475.5 206.4,468.3 216.1,461.3 225.8,453.8 235.5,446.5 245.2,453.9 254.9,461.2 264.6,453.8 274.3,446.5 284.0,439.0 293.7,431.2 303.4,438.8 313.1,446.3 322.8,453.7 332.5,461.1 342.2,468.4 351.9,461.2 361.6,454.4 371.3,447.2 381.0,439.3 390.7,432.3 400.4,439.8 410.1,432.3 419.8,439.9 429.5,432.7 439.2,440.3 448.9,432.6 458.6,424.6 468.3,432.2 478.0,439.8 487.7,432.5 497.4,425.5 507.1,418.4 516.8,410.7 526.5,418.5 536.2,426.2 545.9,418.9 555.6,412.0 565.3,403.8 575.0,396.3 584.7,404.2 594.4,412.0 604.1,419.8 613.8,427.5 623.5,420.4 633.2,428.1 642.9,420.6 652.6,412.8 662.3,404.7 672.0,396.3 681.7,388.5 691.4,380.2 701.1,372.1 710.8,380.3 720.5,372.3 730.2,364.3 739.9,356.6 749.6,364.9 759.3,355.9 769.0,347.5 778.7,339.8 788.4,331.4 798.1,323.1 807.8,315.3 817.5,307.5 827.2,299.5 836.9,290.3 846.6,281.4 856.3,290.4 866.0,299.4 875.7,290.3 885.4,281.0 895.1,271.9 904.8,262.8 914.5,272.1 924.2,263.2 933.9,272.4 943.6,263.3 953.3,272.5 963.0,263.1 972.7,254.3 982.4,244.4 992.1,253.8 1001.8,263.2 1011.5,272.5 1021.2,281.6 1030.9,272.6 1040.6,262.9 1050.3,253.8 1060.0,245.0" fill="none" stroke="#4a9eff" stroke-width="0.6" opacity="0.15"/>
<polyline points="90.0,512.0 99.7,505.2 109.4,498.6 119.1,491.4 128.8,484.7 138.5,477.6 148.2,484.7 157.9,491.7 167.6,485.1 177.3,478.0 187.0,470.5 196.7,477.7 206.4,470.8 216.1,463.7 225.8,456.9 235.5,449.8 245.2,457.2 254.9,450.2 264.6,443.7 274.3,435.6 284.0,428.8 293.7,421.0 303.4,413.6 313.1,421.4 322.8,413.9 332.5,406.5 342.2,398.7 351.9,390.5 361.6,398.5 371.3,406.4 381.0,397.8 390.7,389.9 400.4,382.4 410.1,390.5 419.8,382.3 429.5,374.1 439.2,382.3 448.9,373.9 458.6,366.2 468.3,357.8 478.0,349.4 487.7,341.1 497.4,349.6 507.1,340.5 516.8,349.0 526.5,340.1 536.2,331.6 545.9,340.1 555.6,331.6 565.3,340.1 575.0,330.7 584.7,323.1 594.4,331.8 604.1,322.5 613.8,313.3 623.5,303.7 633.2,294.2 642.9,285.2 652.6,294.3 662.3,285.2 672.0,294.2 681.7,303.2 691.4,293.5 701.1,284.4 710.8,275.7 720.5,267.0 730.2,258.1 739.9,267.5 749.6,258.3 759.3,248.5 769.0,238.8 778.7,229.7 788.4,220.6 798.1,230.3 807.8,220.5 817.5,210.3 827.2,200.4 836.9,191.2 846.6,181.4 856.3,191.5 866.0,201.5 875.7,191.5 885.4,201.5 895.1,191.8 904.8,201.7 914.5,211.6 924.2,221.4 933.9,231.1 943.6,221.5 953.3,231.2 963.0,240.8 972.7,230.6 982.4,240.2 992.1,249.7 1001.8,259.1 1011.5,250.0 1021.2,241.1 1030.9,231.1 1040.6,240.7 1050.3,232.2 1060.0,241.8" fill="none" stroke="#6bffe0" stroke-width="0.6" opacity="0.15"/>
<polyline points="90.0,512.0 99.7,504.9 109.4,498.6 119.1,505.5 128.8,498.5 138.5,491.7 148.2,484.6 157.9,491.6 167.6,484.3 177.3,491.4 187.0,485.1 196.7,477.8 206.4,485.0 216.1,478.2 225.8,485.3 235.5,492.3 245.2,484.9 254.9,477.8 264.6,470.2 274.3,463.1 284.0,456.1 293.7,449.0 303.4,456.4 313.1,463.8 322.8,456.5 332.5,449.1 342.2,456.5 351.9,463.8 361.6,456.8 371.3,449.6 381.0,442.3 390.7,449.8 400.4,457.2 410.1,464.5 419.8,471.7 429.5,464.8 439.2,458.2 448.9,450.7 458.6,443.5 468.3,435.9 478.0,428.3 487.7,420.4 497.4,413.6 507.1,405.8 516.8,413.6 526.5,405.5 536.2,398.1 545.9,389.7 555.6,397.7 565.3,389.8 575.0,382.5 584.7,390.5 594.4,381.8 604.1,389.8 613.8,381.1 623.5,389.2 633.2,397.2 642.9,389.0 652.6,381.2 662.3,372.7 672.0,364.3 681.7,372.5 691.4,364.2 701.1,372.4 710.8,380.6 720.5,388.7 730.2,380.6 739.9,372.8 749.6,365.2 759.3,356.9 769.0,348.0 778.7,339.6 788.4,331.4 798.1,323.0 807.8,314.0 817.5,304.9 827.2,313.7 836.9,304.5 846.6,295.8 856.3,287.0 866.0,296.0 875.7,286.9 885.4,295.9 895.1,304.8 904.8,296.3 914.5,287.1 924.2,278.4 933.9,269.4 943.6,260.2 953.3,251.4 963.0,242.3 972.7,232.8 982.4,242.3 992.1,232.0 1001.8,241.5 1011.5,251.0 1021.2,260.4 1030.9,269.7 1040.6,260.4 1050.3,250.2 1060.0,240.3" fill="none" stroke="#ff6b6b" stroke-width="0.6" opacity="0.15"/>
<polyline points="90.0,512.0 99.7,505.4 109.4,498.4 119.1,505.3 128.8,512.1 138.5,505.5 148.2,498.4 157.9,505.3 167.6,498.8 177.3,491.7 187.0,498.7 196.7,505.6 206.4,512.4 216.1,505.5 225.8,499.0 235.5,506.0 245.2,499.2 254.9,492.1 264.6,485.3 274.3,478.2 284.0,485.3 293.7,492.4 303.4,484.8 313.1,477.8 322.8,484.9 332.5,477.9 342.2,485.1 351.9,492.1 361.6,485.2 371.3,492.2 381.0,485.0 390.7,478.4 400.4,485.5 410.1,492.5 419.8,485.0 429.5,478.2 439.2,470.8 448.9,463.6 458.6,470.8 468.3,478.0 478.0,470.7 487.7,463.4 497.4,455.7 507.1,448.0 516.8,441.2 526.5,433.8 536.2,426.7 545.9,419.3 555.6,411.8 565.3,419.6 575.0,411.2 584.7,419.0 594.4,426.7 604.1,434.3 613.8,426.6 623.5,419.0 633.2,410.9 642.9,418.7 652.6,410.6 662.3,403.1 672.0,394.9 681.7,387.2 691.4,379.3 701.1,370.8 710.8,379.0 720.5,371.3 730.2,363.0 739.9,354.5 749.6,346.3 759.3,337.5 769.0,328.3 778.7,336.9 788.4,328.5 798.1,337.1 807.8,345.7 817.5,337.3 827.2,345.8 836.9,337.6 846.6,328.5 856.3,337.2 866.0,345.7 875.7,337.4 885.4,345.9 895.1,337.3 904.8,328.4 914.5,320.1 924.2,310.7 933.9,302.0 943.6,292.6 953.3,301.6 963.0,310.4 972.7,301.7 982.4,292.9 992.1,284.2 1001.8,293.3 1011.5,284.5 1021.2,275.6 1030.9,265.9 1040.6,256.4 1050.3,247.0 1060.0,237.4" fill="none" stroke="#ff6b9f" stroke-width="0.6" opacity="0.15"/>
<polyline points="90.0,512.0 99.7,505.0 109.4,511.9 119.1,505.2 128.8,512.1 138.5,504.9 148.2,498.5 157.9,491.6 167.6,498.6 177.3,491.1 187.0,498.0 196.7,491.4 206.4,484.8 216.1,478.0 225.8,471.1 235.5,464.1 245.2,471.4 254.9,478.5 264.6,471.2 274.3,463.5 284.0,456.9 293.7,450.1 303.4,442.8 313.1,435.2 322.8,427.4 332.5,419.5 342.2,411.4 351.9,419.2 361.6,426.9 371.3,418.9 381.0,411.7 390.7,403.9 400.4,411.8 410.1,419.6 419.8,411.8 429.5,404.1 439.2,395.8 448.9,388.1 458.6,396.1 468.3,389.1 478.0,397.1 487.7,389.0 497.4,397.0 507.1,404.9 516.8,397.4 526.5,389.6 536.2,397.6 545.9,389.5 555.6,380.9 565.3,372.9 575.0,381.1 584.7,372.8 594.4,381.0 604.1,389.0 613.8,397.0 623.5,405.0 633.2,412.8 642.9,405.4 652.6,397.9 662.3,405.8 672.0,413.6 681.7,406.2 691.4,398.8 701.1,391.9 710.8,399.9 720.5,391.8 730.2,383.7 739.9,391.8 749.6,399.7 759.3,407.6 769.0,399.0 778.7,406.9 788.4,398.7 798.1,390.9 807.8,383.2 817.5,375.3 827.2,367.1 836.9,359.0 846.6,350.5 856.3,342.1 866.0,334.7 875.7,326.6 885.4,318.0 895.1,309.7 904.8,301.1 914.5,292.3 924.2,301.3 933.9,310.2 943.6,301.6 953.3,310.5 963.0,301.7 972.7,292.8 982.4,284.2 992.1,275.3 1001.8,266.7 1011.5,257.7 1021.2,267.0 1030.9,257.3 1040.6,248.3 1050.3,238.8 1060.0,228.7" fill="none" stroke="#ffd36b" stroke-width="0.6" opacity="0.15"/>
<polyline points="90.0,512.0 99.7,518.7 109.4,512.1 119.1,505.0 128.8,511.8 138.5,504.8 148.2,498.1 157.9,491.5 167.6,498.5 177.3,505.4 187.0,498.7 196.7,491.6 206.4,484.7 216.1,491.7 225.8,484.6 235.5,477.1 245.2,469.7 254.9,461.9 264.6,454.8 274.3,448.5 284.0,455.9 293.7,448.2 303.4,441.1 313.1,433.7 322.8,426.4 332.5,418.7 342.2,411.3 351.9,404.3 361.6,412.2 371.3,420.0 381.0,427.6 390.7,420.1 400.4,412.2 410.1,404.3 419.8,412.2 429.5,404.1 439.2,412.0 448.9,419.8 458.6,411.9 468.3,405.0 478.0,397.1 487.7,389.1 497.4,397.1 507.1,405.0 516.8,396.7 526.5,388.4 536.2,380.7 545.9,372.1 555.6,364.2 565.3,372.4 575.0,380.6 584.7,373.2 594.4,381.4 604.1,372.8 613.8,364.6 623.5,356.4 633.2,348.6 642.9,339.7 652.6,331.1 662.3,322.6 672.0,331.2 681.7,339.8 691.4,331.3 701.1,322.8 710.8,331.5 720.5,340.0 730.2,348.5 739.9,340.1 749.6,331.5 759.3,323.3 769.0,315.0 778.7,306.4 788.4,296.9 798.1,288.4 807.8,297.4 817.5,306.4 827.2,297.2 836.9,288.6 846.6,297.6 856.3,306.5 866.0,298.1 875.7,307.0 885.4,297.8 895.1,288.9 904.8,280.0 914.5,289.1 924.2,279.9 933.9,289.0 943.6,280.4 953.3,289.5 963.0,280.4 972.7,271.1 982.4,262.7 992.1,272.0 1001.8,281.1 1011.5,272.0 1021.2,262.8 1030.9,253.9 1040.6,243.7 1050.3,234.5 1060.0,225.3" fill="none" stroke="#9fff6b" stroke-width="0.6" opacity="0.15"/>
<polyline points="90.0,512.0 99.7,505.0 109.4,498.0 119.1,491.8 128.8,498.7 138.5,492.0 148.2,484.9 157.9,478.3 167.6,471.8 177.3,479.0 187.0,486.1 196.7,479.2 206.4,472.6 216.1,465.4 225.8,457.8 235.5,450.3 245.2,443.3 254.9,435.4 264.6,427.1 274.3,419.8 284.0,427.5 293.7,420.1 303.4,412.4 313.1,404.5 322.8,396.9 332.5,388.9 342.2,380.8 351.9,388.9 361.6,396.9 371.3,388.7 381.0,396.7 390.7,388.7 400.4,380.1 410.1,371.4 419.8,362.9 429.5,355.0 439.2,363.4 448.9,356.1 458.6,364.5 468.3,356.2 478.0,364.6 487.7,356.2 497.4,348.4 507.1,356.8 516.8,365.1 526.5,373.3 536.2,381.5 545.9,389.6 555.6,381.7 565.3,373.0 575.0,381.2 584.7,389.2 594.4,381.1 604.1,372.4 613.8,380.5 623.5,372.3 633.2,380.4 642.9,372.4 652.6,380.6 662.3,373.0 672.0,381.2 681.7,389.2 691.4,381.5 701.1,372.9 710.8,364.6 720.5,356.7 730.2,347.9 739.9,339.4 749.6,330.5 759.3,321.3 769.0,312.0 778.7,320.8 788.4,311.9 798.1,303.4 807.8,294.4 817.5,286.2 827.2,295.2 836.9,286.7 846.6,276.8 856.3,285.9 866.0,276.7 875.7,267.2 885.4,257.7 895.1,248.9 904.8,258.3 914.5,267.7 924.2,276.9 933.9,267.0 943.6,257.7 953.3,267.0 963.0,257.0 972.7,248.4 982.4,239.7 992.1,230.3 1001.8,220.0 1011.5,229.7 1021.2,239.3 1030.9,231.2 1040.6,240.8 1050.3,231.6 1060.0,222.4" fill="none" stroke="#ff6b9f" stroke-width="0.6" opacity="0.15"/>
<polyline points="90.0,512.0 99.7,505.2 109.4,498.3 119.1,491.6 128.8,485.0 138.5,492.0 148.2,499.0 157.9,491.8 167.6,485.3 177.3,478.3 187.0,485.4 196.7,478.3 206.4,485.4 216.1,478.4 225.8,471.3 235.5,464.5 245.2,457.5 254.9,464.8 264.6,457.2 274.3,464.5 284.0,457.3 293.7,449.3 303.4,456.7 313.1,464.1 322.8,471.3 332.5,478.5 342.2,485.6 351.9,478.3 361.6,471.3 371.3,464.4 381.0,471.6 390.7,464.6 400.4,471.8 410.1,464.6 419.8,458.0 429.5,465.3 439.2,472.6 448.9,479.7 458.6,486.8 468.3,479.8 478.0,472.9 487.7,465.4 497.4,457.7 507.1,449.8 516.8,442.6 526.5,434.9 536.2,427.7 545.9,420.3 555.6,412.7 565.3,404.6 575.0,397.2 584.7,389.0 594.4,380.9 604.1,372.8 613.8,380.9 623.5,371.9 633.2,380.1 642.9,388.2 652.6,380.0 662.3,388.1 672.0,396.1 681.7,404.1 691.4,396.5 701.1,404.4 710.8,396.3 720.5,388.0 730.2,379.4 739.9,370.9 749.6,362.1 759.3,353.7 769.0,362.1 778.7,353.9 788.4,346.0 798.1,337.9 807.8,328.8 817.5,320.4 827.2,311.7 836.9,303.1 846.6,312.0 856.3,320.8 866.0,312.0 875.7,302.5 885.4,311.4 895.1,301.4 904.8,292.7 914.5,283.6 924.2,274.0 933.9,264.7 943.6,274.0 953.3,283.1 963.0,274.1 972.7,265.4 982.4,256.2 992.1,265.6 1001.8,256.5 1011.5,247.1 1021.2,237.0 1030.9,227.2 1040.6,217.6 1050.3,227.4 1060.0,218.1" fill="none" stroke="#4a9eff" stroke-width="0.6" opacity="0.15"/>
<polyline points="90.0,512.0 99.7,518.7 109.4,525.4 119.1,519.2 128.8,513.1 138.5,506.2 148.2,499.3 157.9,506.2 167.6,513.0 177.3,505.6 187.0,498.8 196.7,505.7 206.4,499.2 216.1,492.5 225.8,486.0 235.5,479.5 245.2,472.4 254.9,464.3 264.6,457.8 274.3,450.7 284.0,443.2 293.7,436.2 303.4,428.3 313.1,421.6 322.8,413.5 332.5,405.8 342.2,413.6 351.9,406.3 361.6,397.9 371.3,390.7 381.0,398.6 390.7,390.5 400.4,398.5 410.1,390.6 419.8,398.6 429.5,390.3 439.2,382.1 448.9,374.2 458.6,382.4 468.3,374.5 478.0,365.9 487.7,374.1 497.4,366.0 507.1,357.5 516.8,365.8 526.5,357.4 536.2,365.7 545.9,357.0 555.6,365.3 565.3,357.2 575.0,348.6 584.7,357.0 594.4,348.7 604.1,339.3 613.8,347.8 623.5,356.2 633.2,347.8 642.9,339.9 652.6,330.8 662.3,339.4 672.0,347.9 681.7,339.7 691.4,331.2 701.1,339.8 710.8,331.9 720.5,340.5 730.2,349.0 739.9,340.8 749.6,332.4 759.3,324.4 769.0,333.0 778.7,324.8 788.4,333.4 798.1,342.0 807.8,333.7 817.5,342.2 827.2,333.5 836.9,325.3 846.6,333.9 856.3,326.2 866.0,334.8 875.7,325.8 885.4,317.5 895.1,309.2 904.8,300.6 914.5,292.2 924.2,283.4 933.9,273.9 943.6,264.8 953.3,256.1 963.0,265.5 972.7,255.2 982.4,245.9 992.1,255.4 1001.8,245.4 1011.5,236.2 1021.2,226.3 1030.9,235.9 1040.6,226.1 1050.3,216.0 1060.0,206.7" fill="none" stroke="#6bd5ff" stroke-width="0.6" opacity="0.15"/>
<polyline points="90.0,512.0 99.7,505.6 109.4,499.2 119.1,506.1 128.8,499.1 138.5,492.1 148.2,484.7 157.9,477.5 167.6,470.5 177.3,463.3 187.0,470.5 196.7,464.1 206.4,456.5 216.1,449.4 225.8,442.3 235.5,449.8 245.2,442.3 254.9,434.7 264.6,427.2 274.3,419.2 284.0,426.9 293.7,419.7 303.4,427.4 313.1,435.0 322.8,427.3 332.5,434.9 342.2,427.5 351.9,435.1 361.6,442.7 371.3,450.1 381.0,442.7 390.7,435.7 400.4,443.3 410.1,450.7 419.8,458.1 429.5,451.6 439.2,444.7 448.9,437.0 458.6,444.6 468.3,452.0 478.0,459.4 487.7,451.3 497.4,443.7 507.1,436.5 516.8,428.8 526.5,421.6 536.2,414.1 545.9,421.8 555.6,414.1 565.3,405.9 575.0,413.7 584.7,406.2 594.4,398.4 604.1,406.3 613.8,398.7 623.5,390.4 633.2,382.8 642.9,374.3 652.6,365.9 662.3,357.7 672.0,349.4 681.7,340.6 691.4,349.1 701.1,341.0 710.8,332.7 720.5,324.7 730.2,316.3 739.9,307.7 749.6,299.3 759.3,290.0 769.0,281.2 778.7,290.2 788.4,280.7 798.1,289.8 807.8,280.4 817.5,271.2 827.2,261.8 836.9,271.1 846.6,261.9 856.3,252.3 866.0,241.5 875.7,251.0 885.4,241.5 895.1,232.0 904.8,222.7 914.5,213.0 924.2,203.5 933.9,193.5 943.6,183.7 953.3,193.7 963.0,184.3 972.7,174.3 982.4,163.8 992.1,174.0 1001.8,184.2 1011.5,194.2 1021.2,204.2 1030.9,194.2 1040.6,204.1 1050.3,214.0 1060.0,204.4" fill="none" stroke="#ff6b6b" stroke-width="0.6" opacity="0.15"/>
<polyline points="90.0,512.0 99.7,504.9 109.4,498.6 119.1,491.4 128.8,498.3 138.5,491.2 148.2,498.2 157.9,505.1 167.6,498.2 177.3,491.7 187.0,484.4 196.7,491.5 206.4,484.5 216.1,491.5 225.8,484.4 235.5,478.0 245.2,485.1 254.9,492.1 264.6,485.3 274.3,477.3 284.0,470.0 293.7,477.2 303.4,484.3 313.1,477.2 322.8,470.2 332.5,462.7 342.2,455.7 351.9,448.2 361.6,439.9 371.3,432.0 381.0,439.6 390.7,432.1 400.4,439.7 410.1,447.2 419.8,454.6 429.5,447.8 439.2,439.9 448.9,432.4 458.6,424.6 468.3,432.3 478.0,439.8 487.7,447.3 497.4,439.8 507.1,432.2 516.8,424.9 526.5,432.5 536.2,425.1 545.9,418.0 555.6,425.7 565.3,433.3 575.0,426.1 584.7,418.3 594.4,411.1 604.1,403.1 613.8,410.9 623.5,402.6 633.2,395.4 642.9,387.0 652.6,378.7 662.3,371.2 672.0,362.4 681.7,370.7 691.4,362.5 701.1,354.0 710.8,362.4 720.5,354.4 730.2,346.2 739.9,337.7 749.6,346.2 759.3,354.7 769.0,346.4 778.7,337.6 788.4,346.1 798.1,354.6 807.8,346.0 817.5,337.5 827.2,329.1 836.9,320.3 846.6,329.0 856.3,320.5 866.0,311.2 875.7,303.4 885.4,295.0 895.1,286.0 904.8,277.4 914.5,267.8 924.2,259.0 933.9,249.9 943.6,240.2 953.3,230.1 963.0,220.4 972.7,211.0 982.4,220.8 992.1,211.6 1001.8,221.4 1011.5,231.0 1021.2,221.5 1030.9,211.2 1040.6,201.7 1050.3,211.6 1060.0,202.5" fill="none" stroke="#ff6b9f" stroke-width="0.6" opacity="0.15"/>
<polyline points="90.0,512.0 99.7,505.2 109.4,512.0 119.1,505.1 128.8,497.8 138.5,491.1 148.2,498.1 157.9,505.0 167.6,511.8 177.3,505.3 187.0,512.1 196.7,504.5 206.4,497.3 216.1,504.2 225.8,497.7 235.5,504.6 245.2,497.7 254.9,490.4 264.6,483.1 274.3,476.0 284.0,469.1 293.7,461.6 303.4,454.3 313.1,446.7 322.8,439.4 332.5,432.0 342.2,423.9 351.9,416.4 361.6,408.3 371.3,416.1 381.0,408.5 390.7,400.5 400.4,392.0 410.1,383.8 419.8,375.6 429.5,383.7 439.2,391.8 448.9,384.4 458.6,392.4 468.3,384.3 478.0,375.9 487.7,367.6 497.4,359.0 507.1,350.8 516.8,342.6 526.5,333.9 536.2,325.1 545.9,316.4 555.6,307.9 565.3,299.5 575.0,290.9 584.7,299.9 594.4,290.9 604.1,282.4 613.8,291.5 623.5,300.5 633.2,309.3 642.9,301.0 652.6,309.9 662.3,300.4 672.0,291.8 681.7,282.3 691.4,273.5 701.1,282.6 710.8,273.9 720.5,263.6 730.2,253.5 739.9,262.9 749.6,272.1 759.3,262.6 769.0,253.3 778.7,262.7 788.4,253.9 798.1,244.9 807.8,235.7 817.5,226.1 827.2,235.7 836.9,225.5 846.6,235.1 856.3,225.4 866.0,235.1 875.7,244.6 885.4,235.8 895.1,226.9 904.8,217.2 914.5,226.9 924.2,236.5 933.9,226.5 943.6,216.7 953.3,206.8 963.0,196.8 972.7,206.7 982.4,216.5 992.1,226.3 1001.8,216.3 1011.5,226.0 1021.2,216.0 1030.9,205.6 1040.6,196.0 1050.3,186.0 1060.0,196.1" fill="none" stroke="#6bffe0" stroke-width="0.6" opacity="0.15"/>
<polyline points="90.0,512.0 99.7,505.0 109.4,498.6 119.1,491.3 128.8,484.6 138.5,477.3 148.2,469.7 157.9,463.3 167.6,455.9 177.3,448.3 187.0,455.7 196.7,448.7 206.4,441.2 216.1,448.7 225.8,441.0 235.5,433.8 245.2,426.5 254.9,434.1 264.6,441.7 274.3,433.9 284.0,426.2 293.7,419.1 303.4,412.0 313.1,419.8 322.8,411.9 332.5,403.6 342.2,395.6 351.9,403.6 361.6,395.9 371.3,388.2 381.0,380.6 390.7,373.0 400.4,381.2 410.1,372.6 419.8,380.8 429.5,388.9 439.2,380.9 448.9,388.9 458.6,381.1 468.3,389.2 478.0,397.2 487.7,405.1 497.4,396.9 507.1,389.5 516.8,382.0 526.5,373.4 536.2,365.1 545.9,357.0 555.6,365.3 565.3,373.5 575.0,365.0 584.7,373.3 594.4,365.1 604.1,356.3 613.8,364.6 623.5,372.8 633.2,381.0 642.9,373.5 652.6,366.1 662.3,357.7 672.0,349.2 681.7,340.7 691.4,332.6 701.1,324.6 710.8,316.1 720.5,307.2 730.2,297.9 739.9,289.4 749.6,280.5 759.3,289.6 769.0,281.0 778.7,271.6 788.4,280.7 798.1,271.0 807.8,262.9 817.5,272.2 827.2,263.6 836.9,272.8 846.6,263.5 856.3,253.9 866.0,263.3 875.7,254.5 885.4,263.8 895.1,254.7 904.8,245.5 914.5,235.7 924.2,225.7 933.9,216.6 943.6,205.1 953.3,215.0 963.0,205.5 972.7,195.2 982.4,185.4 992.1,195.4 1001.8,186.7 1011.5,196.7 1021.2,187.1 1030.9,197.2 1040.6,207.1 1050.3,197.0 1060.0,188.1" fill="none" stroke="#ff6bd5" stroke-width="0.6" opacity="0.15"/>
<polyline points="90.0,512.0 99.7,505.3 109.4,498.7 119.1,492.2 128.8,485.7 138.5,492.7 148.2,485.8 157.9,478.7 167.6,485.8 177.3,492.9 187.0,499.8 196.7,506.7 206.4,500.1 216.1,493.6 225.8,500.5 235.5,494.2 245.2,487.2 254.9,480.8 264.6,473.5 274.3,466.5 284.0,459.4 293.7,452.4 303.4,444.6 313.1,437.1 322.8,444.6 332.5,452.1 342.2,459.5 351.9,466.7 361.6,459.8 371.3,452.6 381.0,444.5 390.7,452.0 400.4,444.1 410.1,451.6 419.8,444.3 429.5,451.7 439.2,444.3 448.9,437.3 458.6,429.5 468.3,437.1 478.0,429.0 487.7,421.4 497.4,429.0 507.1,421.3 516.8,413.5 526.5,406.0 536.2,398.0 545.9,390.4 555.6,382.5 565.3,374.7 575.0,366.5 584.7,357.9 594.4,348.7 604.1,339.8 613.8,331.3 623.5,323.1 633.2,314.4 642.9,323.1 652.6,314.8 662.3,305.8 672.0,295.9 681.7,288.3 691.4,297.3 701.1,287.6 710.8,279.1 720.5,270.0 730.2,261.3 739.9,270.6 749.6,260.7 759.3,270.0 769.0,260.6 778.7,250.7 788.4,241.6 798.1,251.1 807.8,242.3 817.5,251.7 827.2,242.7 836.9,252.2 846.6,242.5 856.3,233.2 866.0,223.4 875.7,213.3 885.4,203.3 895.1,213.2 904.8,222.9 914.5,213.6 924.2,223.4 933.9,214.1 943.6,223.8 953.3,233.5 963.0,243.0 972.7,234.0 982.4,223.9 992.1,214.4 1001.8,204.4 1011.5,194.2 1021.2,184.3 1030.9,194.3 1040.6,183.6 1050.3,193.7 1060.0,182.9" fill="none" stroke="#6bffb8" stroke-width="0.6" opacity="0.15"/>
<polyline points="90.0,512.0 99.7,518.7 109.4,525.4 119.1,518.7 128.8,512.1 138.5,505.1 148.2,498.2 157.9,492.2 167.6,499.1 177.3,506.0 187.0,499.9 196.7,492.5 206.4,499.5 216.1,492.0 225.8,484.0 235.5,476.5 245.2,483.6 254.9,476.5 264.6,469.0 274.3,476.2 284.0,469.5 293.7,476.7 303.4,469.5 313.1,462.0 322.8,454.8 332.5,447.6 342.2,440.8 351.9,433.2 361.6,440.7 371.3,433.2 381.0,425.2 390.7,417.7 400.4,409.5 410.1,401.6 419.8,393.3 429.5,386.3 439.2,378.2 448.9,386.3 458.6,378.3 468.3,370.4 478.0,362.4 487.7,353.8 497.4,362.2 507.1,354.2 516.8,346.0 526.5,337.3 536.2,345.8 545.9,337.7 555.6,329.4 565.3,321.4 575.0,312.1 584.7,303.3 594.4,294.6 604.1,303.6 613.8,295.1 623.5,304.1 633.2,312.9 642.9,303.9 652.6,312.8 662.3,321.5 672.0,312.7 681.7,302.9 691.4,311.8 701.1,320.6 710.8,311.7 720.5,302.6 730.2,293.5 739.9,283.7 749.6,275.0 759.3,266.0 769.0,256.4 778.7,247.3 788.4,237.7 798.1,247.2 807.8,237.4 817.5,246.9 827.2,237.6 836.9,247.1 846.6,236.4 856.3,227.4 866.0,237.0 875.7,226.5 885.4,216.6 895.1,206.4 904.8,196.4 914.5,206.3 924.2,196.2 933.9,186.6 943.6,196.7 953.3,206.6 963.0,196.7 972.7,206.6 982.4,197.1 992.1,207.0 1001.8,197.0 1011.5,207.0 1021.2,196.4 1030.9,186.5 1040.6,176.4 1050.3,186.6 1060.0,176.0" fill="none" stroke="#9fff6b" stroke-width="0.6" opacity="0.15"/>
<polyline points="90.0,512.0 99.7,504.9 109.4,498.6 119.1,492.3 128.8,499.3 138.5,492.3 148.2,499.3 157.9,492.5 167.6,485.7 177.3,478.5 187.0,471.3 196.7,464.2 206.4,456.5 216.1,463.8 225.8,456.6 235.5,463.9 245.2,457.2 254.9,450.1 264.6,442.4 274.3,434.8 284.0,427.5 293.7,420.0 303.4,427.7 313.1,419.4 322.8,427.1 332.5,419.9 342.2,412.1 351.9,403.9 361.6,395.1 371.3,387.7 381.0,379.8 390.7,387.9 400.4,379.9 410.1,372.1 419.8,380.2 429.5,372.3 439.2,364.0 448.9,372.3 458.6,380.4 468.3,371.7 478.0,363.6 487.7,371.9 497.4,380.1 507.1,372.3 516.8,380.5 526.5,372.4 536.2,380.6 545.9,372.6 555.6,380.7 565.3,372.1 575.0,363.5 584.7,371.8 594.4,363.6 604.1,355.5 613.8,347.0 623.5,338.4 633.2,329.5 642.9,321.1 652.6,312.7 662.3,304.2 672.0,313.1 681.7,303.8 691.4,295.7 701.1,285.9 710.8,294.9 720.5,285.8 730.2,294.9 739.9,286.5 749.6,276.9 759.3,267.0 769.0,257.6 778.7,266.9 788.4,257.1 798.1,248.1 807.8,238.7 817.5,248.2 827.2,240.1 836.9,230.9 846.6,221.7 856.3,212.3 866.0,203.1 875.7,213.0 885.4,202.9 895.1,192.2 904.8,202.1 914.5,212.0 924.2,203.3 933.9,213.1 943.6,203.6 953.3,193.2 963.0,183.1 972.7,173.6 982.4,183.7 992.1,193.8 1001.8,184.4 1011.5,174.7 1021.2,163.9 1030.9,174.1 1040.6,184.3 1050.3,174.8 1060.0,164.6" fill="none" stroke="#b86bff" stroke-width="0.6" opacity="0.15"/>
<polyline points="90.0,512.0 99.7,505.6 109.4,498.4 119.1,491.3 128.8,484.0 138.5,476.5 148.2,483.6 157.9,476.5 167.6,483.6 177.3,490.6 187.0,483.4 196.7,476.1 206.4,469.0 216.1,462.0 225.8,454.6 235.5,447.1 245.2,439.7 254.9,447.2 264.6,454.6 274.3,461.9 284.0,454.8 293.7,447.6 303.4,455.0 313.1,447.8 322.8,455.2 332.5,448.3 342.2,441.7 351.9,433.9 361.6,426.2 371.3,433.8 381.0,441.4 390.7,433.5 400.4,425.8 410.1,433.5 419.8,426.2 429.5,419.2 439.2,426.9 448.9,419.3 458.6,411.4 468.3,403.2 478.0,411.0 487.7,418.8 497.4,411.1 507.1,403.2 516.8,395.5 526.5,387.8 536.2,379.7 545.9,387.8 555.6,379.5 565.3,387.6 575.0,379.9 584.7,371.5 594.4,363.5 604.1,355.2 613.8,346.6 623.5,355.0 633.2,346.5 642.9,355.0 652.6,345.6 662.3,338.0 672.0,346.5 681.7,338.5 691.4,329.7 701.1,321.6 710.8,313.0 720.5,321.8 730.2,313.4 739.9,322.2 749.6,313.5 759.3,322.2 769.0,313.0 778.7,304.1 788.4,295.0 798.1,286.2 807.8,276.9 817.5,267.2 827.2,257.0 836.9,249.2 846.6,239.7 856.3,249.2 866.0,258.6 875.7,249.6 885.4,259.0 895.1,249.6 904.8,240.2 914.5,230.8 924.2,240.3 933.9,231.0 943.6,240.6 953.3,230.2 963.0,220.8 972.7,211.4 982.4,221.1 992.1,212.0 1001.8,201.6 1011.5,191.4 1021.2,182.2 1030.9,172.1 1040.6,161.4 1050.3,171.7 1060.0,160.1" fill="none" stroke="#4a9eff" stroke-width="0.6" opacity="0.15"/>
<polyline points="90.0,512.0 99.7,505.3 109.4,512.1 119.1,505.7 128.8,498.8 138.5,491.3 148.2,484.4 157.9,477.1 167.6,469.6 177.3,476.8 187.0,483.9 196.7,477.0 206.4,484.1 216.1,477.5 225.8,470.4 235.5,477.6 245.2,484.7 254.9,477.9 264.6,470.3 274.3,462.8 284.0,470.1 293.7,462.5 303.4,455.5 313.1,462.8 322.8,455.1 332.5,447.9 342.2,455.3 351.9,447.9 361.6,455.3 371.3,462.6 381.0,455.6 390.7,449.0 400.4,456.4 410.1,448.6 419.8,456.0 429.5,448.7 439.2,456.1 448.9,448.4 458.6,441.2 468.3,433.0 478.0,425.2 487.7,417.9 497.4,409.6 507.1,401.3 516.8,409.1 526.5,416.9 536.2,408.7 545.9,416.5 555.6,408.7 565.3,416.5 575.0,408.6 584.7,401.2 594.4,392.8 604.1,384.8 613.8,376.9 623.5,368.8 633.2,377.0 642.9,369.0 652.6,360.4 662.3,368.7 672.0,359.7 681.7,351.2 691.4,342.0 701.1,332.3 710.8,322.7 720.5,314.5 730.2,306.0 739.9,297.1 749.6,306.0 759.3,296.6 769.0,305.6 778.7,296.2 788.4,305.1 798.1,313.9 807.8,304.8 817.5,295.5 827.2,304.4 836.9,313.3 846.6,305.0 856.3,295.9 866.0,304.8 875.7,296.1 885.4,287.3 895.1,278.6 904.8,269.3 914.5,259.8 924.2,249.9 933.9,239.4 943.6,230.2 953.3,220.7 963.0,209.9 972.7,219.7 982.4,209.5 992.1,199.6 1001.8,189.7 1011.5,179.3 1021.2,169.6 1030.9,159.6 1040.6,148.7 1050.3,159.1 1060.0,148.2" fill="none" stroke="#6bd5ff" stroke-width="0.6" opacity="0.15"/>
<polyline points="90.0,512.0 99.7,518.7 109.4,512.4 119.1,505.5 128.8,512.3 138.5,505.3 148.2,498.4 157.9,491.0 167.6,484.4 177.3,477.7 187.0,471.0 196.7,464.1 206.4,456.9 216.1,464.2 225.8,456.9 235.5,449.2 245.2,441.5 254.9,448.9 264.6,456.3 274.3,448.9 284.0,441.3 293.7,433.6 303.4,426.3 313.1,418.5 322.8,426.2 332.5,417.9 342.2,410.3 351.9,402.2 361.6,393.9 371.3,386.2 381.0,378.4 390.7,370.6 400.4,362.9 410.1,371.1 419.8,362.9 429.5,354.8 439.2,363.2 448.9,354.7 458.6,346.2 468.3,337.4 478.0,345.9 487.7,337.7 497.4,329.0 507.1,337.6 516.8,346.1 526.5,337.0 536.2,328.6 545.9,320.5 555.6,311.4 565.3,302.7 575.0,293.7 584.7,302.6 594.4,292.7 604.1,283.9 613.8,274.8 623.5,265.7 633.2,274.9 642.9,266.4 652.6,257.4 662.3,248.6 672.0,238.4 681.7,247.9 691.4,257.3 701.1,248.5 710.8,239.4 720.5,248.9 730.2,239.9 739.9,230.3 749.6,221.1 759.3,211.0 769.0,201.8 778.7,191.9 788.4,181.6 798.1,171.3 807.8,181.5 817.5,191.6 827.2,201.6 836.9,191.9 846.6,182.6 856.3,172.9 866.0,183.1 875.7,193.2 885.4,182.2 895.1,192.2 904.8,182.8 914.5,171.8 924.2,161.5 933.9,150.6 943.6,140.6 953.3,151.1 963.0,141.2 972.7,151.7 982.4,141.2 992.1,151.7 1001.8,140.8 1011.5,130.0 1021.2,140.6 1030.9,151.1 1040.6,161.5 1050.3,151.2 1060.0,140.6" fill="none" stroke="#ffd36b" stroke-width="0.6" opacity="0.15"/>
<polyline points="90.0,512.0 99.7,505.5 109.4,498.5 119.1,505.4 128.8,512.3 138.5,519.0 148.2,513.0 157.9,506.5 167.6,499.5 177.3,492.2 187.0,485.9 196.7,492.9 206.4,485.7 216.1,478.4 225.8,470.8 235.5,464.0 245.2,456.7 254.9,449.2 264.6,441.7 274.3,434.0 284.0,426.6 293.7,419.0 303.4,426.7 313.1,419.0 322.8,426.7 332.5,419.0 342.2,411.8 351.9,419.6 361.6,412.4 371.3,420.1 381.0,412.7 390.7,404.7 400.4,412.6 410.1,405.5 419.8,397.4 429.5,389.3 439.2,381.2 448.9,389.3 458.6,380.9 468.3,389.0 478.0,380.9 487.7,389.0 497.4,381.0 507.1,373.3 516.8,381.4 526.5,373.0 536.2,381.2 545.9,389.3 555.6,380.9 565.3,372.9 575.0,364.8 584.7,356.7 594.4,349.0 604.1,340.5 613.8,349.0 623.5,340.5 633.2,332.5 642.9,341.1 652.6,332.5 662.3,341.1 672.0,332.1 681.7,323.4 691.4,315.0 701.1,306.3 710.8,298.4 720.5,289.4 730.2,298.4 739.9,289.9 749.6,281.1 759.3,271.2 769.0,261.8 778.7,252.6 788.4,243.0 798.1,233.0 807.8,223.4 817.5,233.1 827.2,223.7 836.9,214.4 846.6,224.1 856.3,214.2 866.0,223.9 875.7,233.6 885.4,223.5 895.1,214.0 904.8,223.8 914.5,214.4 924.2,204.8 933.9,195.0 943.6,184.6 953.3,174.8 963.0,163.9 972.7,153.3 982.4,142.0 992.1,152.4 1001.8,162.8 1011.5,152.0 1021.2,141.6 1030.9,131.1 1040.6,120.7 1050.3,109.6 1060.0,120.4" fill="none" stroke="#ff6bd5" stroke-width="0.6" opacity="0.15"/>
<polyline points="90.0,512.0 99.7,518.7 109.4,512.1 119.1,505.2 128.8,512.0 138.5,505.4 148.2,498.2 157.9,505.1 167.6,511.9 177.3,505.3 187.0,512.2 196.7,506.1 206.4,513.0 216.1,505.9 225.8,498.6 235.5,505.5 245.2,498.2 254.9,505.2 264.6,498.3 274.3,491.5 284.0,484.6 293.7,477.6 303.4,470.8 313.1,463.9 322.8,457.2 332.5,450.0 342.2,442.1 351.9,449.6 361.6,442.0 371.3,449.5 381.0,442.0 390.7,434.9 400.4,427.3 410.1,419.3 419.8,427.0 429.5,434.6 439.2,427.6 448.9,419.6 458.6,427.3 468.3,419.2 478.0,412.0 487.7,403.7 497.4,395.9 507.1,388.2 516.8,379.7 526.5,372.2 536.2,363.7 545.9,371.9 555.6,365.1 565.3,356.7 575.0,349.1 584.7,340.6 594.4,331.2 604.1,322.1 613.8,314.0 623.5,304.8 633.2,313.7 642.9,304.3 652.6,296.2 662.3,287.9 672.0,296.9 681.7,288.2 691.4,279.0 701.1,269.7 710.8,260.4 720.5,251.5 730.2,242.8 739.9,233.6 749.6,224.3 759.3,213.9 769.0,223.6 778.7,214.1 788.4,204.2 798.1,193.9 807.8,184.2 817.5,194.3 827.2,184.2 836.9,194.2 846.6,204.2 856.3,193.6 866.0,184.2 875.7,172.6 885.4,162.5 895.1,172.8 904.8,162.4 914.5,153.2 924.2,142.9 933.9,153.4 943.6,143.2 953.3,133.1 963.0,123.5 972.7,134.2 982.4,123.7 992.1,113.5 1001.8,101.8 1011.5,112.7 1021.2,123.5 1030.9,113.5 1040.6,102.1 1050.3,91.1 1060.0,102.1" fill="none" stroke="#ff6bd5" stroke-width="0.6" opacity="0.15"/>
<polyline points="90.0,512.0 99.7,504.8 109.4,497.7 119.1,491.0 128.8,484.4 138.5,491.4 148.2,484.9 157.9,477.6 167.6,470.0 177.3,477.2 187.0,484.3 196.7,477.2 206.4,484.3 216.1,477.3 225.8,470.5 235.5,463.7 245.2,456.9 254.9,449.5 264.6,441.7 274.3,449.1 284.0,456.5 293.7,449.2 303.4,442.0 313.1,449.5 322.8,442.2 332.5,435.7 342.2,429.2 351.9,420.5 361.6,413.6 371.3,405.3 381.0,397.8 390.7,405.7 400.4,398.6 410.1,390.4 419.8,382.6 429.5,390.6 439.2,398.6 448.9,390.9 458.6,382.8 468.3,374.0 478.0,365.6 487.7,357.5 497.4,348.7 507.1,340.7 516.8,349.1 526.5,340.5 536.2,331.7 545.9,322.4 555.6,313.1 565.3,304.6 575.0,295.6 584.7,286.4 594.4,295.5 604.1,286.3 613.8,277.1 623.5,286.3 633.2,277.3 642.9,286.4 652.6,277.2 662.3,286.4 672.0,276.9 681.7,267.3 691.4,258.3 701.1,248.6 710.8,258.0 720.5,248.7 730.2,239.3 739.9,230.6 749.6,221.1 759.3,210.7 769.0,220.4 778.7,230.1 788.4,220.1 798.1,210.7 807.8,201.8 817.5,192.1 827.2,202.0 836.9,192.7 846.6,182.8 856.3,192.9 866.0,182.7 875.7,172.7 885.4,163.1 895.1,173.3 904.8,183.5 914.5,173.9 924.2,164.0 933.9,153.3 943.6,143.0 953.3,153.4 963.0,142.6 972.7,132.6 982.4,122.3 992.1,110.9 1001.8,100.2 1011.5,89.3 1021.2,77.4 1030.9,66.2 1040.6,77.4 1050.3,66.0 1060.0,54.5" fill="none" stroke="#9fff6b" stroke-width="0.6" opacity="0.15"/>
<line x1="90" y1="512.0" x2="1060" y2="512.0" stroke="#ffffff" stroke-width="1" stroke-dasharray="5,5" opacity="0.25"/><polyline points="90.0,512.0 99.7,505.0 109.4,511.9 119.1,518.7 128.8,511.9 138.5,505.1 148.2,498.0 157.9,491.5 167.6,484.7 177.3,477.9 187.0,470.9 196.7,463.9 206.4,456.7 216.1,449.3 225.8,456.7 235.5,449.4 245.2,442.2 254.9,434.6 264.6,427.8 274.3,420.7 284.0,412.7 293.7,404.5 303.4,396.7 313.1,404.7 322.8,397.0 332.5,404.9 342.2,397.2 351.9,405.1 361.6,413.0 371.3,405.8 381.0,398.3 390.7,390.7 400.4,383.0 410.1,374.3 419.8,366.2 429.5,358.2 439.2,349.9 448.9,341.3 458.6,349.7 468.3,341.8 478.0,333.3 487.7,341.9 497.4,332.9 507.1,324.0 516.8,314.9 526.5,306.0 536.2,314.9 545.9,323.6 555.6,332.2 565.3,323.5 575.0,314.3 584.7,323.0 594.4,331.7 604.1,323.0 613.8,331.7 623.5,323.0 633.2,314.5 642.9,305.4 652.6,296.1 662.3,287.1 672.0,277.7 681.7,268.5 691.4,259.7 701.1,250.5 710.8,259.9 720.5,250.9 730.2,260.3 739.9,269.6 749.6,278.8 759.3,287.9 769.0,279.2 778.7,271.0 788.4,262.0 798.1,271.3 807.8,262.6 817.5,254.0 827.2,245.1 836.9,235.5 846.6,245.0 856.3,236.3 866.0,227.5 875.7,218.2 885.4,208.8 895.1,198.3 904.8,189.3 914.5,179.6 924.2,189.7 933.9,179.3 943.6,169.6 953.3,158.1 963.0,148.2 972.7,158.6 982.4,169.0 992.1,179.2 1001.8,169.1 1011.5,159.1 1021.2,148.0 1030.9,137.9 1040.6,148.4 1050.3,138.5 1060.0,127.8" fill="none" stroke="#44dd77" stroke-width="2" opacity="1"/>
<polyline points="90.0,512.0 99.7,504.9 109.4,498.3 119.1,505.2 128.8,498.1 138.5,490.8 148.2,483.7 157.9,490.7 167.6,483.5 177.3,476.7 187.0,483.8 196.7,476.8 206.4,470.0 216.1,462.3 225.8,454.9 235.5,447.0 245.2,439.3 254.9,446.8 264.6,439.5 274.3,432.3 284.0,439.9 293.7,432.4 303.4,424.4 313.1,417.2 322.8,424.9 332.5,417.0 342.2,424.7 351.9,432.3 361.6,425.1 371.3,417.5 381.0,425.2 390.7,432.8 400.4,440.4 410.1,447.9 419.8,440.5 429.5,433.1 439.2,425.5 448.9,417.6 458.6,425.3 468.3,417.0 478.0,424.7 487.7,417.4 497.4,425.1 507.1,417.9 516.8,410.7 526.5,402.8 536.2,395.0 545.9,386.9 555.6,379.0 565.3,370.7 575.0,378.9 584.7,371.5 594.4,363.1 604.1,354.5 613.8,362.8 623.5,354.2 633.2,362.6 642.9,353.8 652.6,345.8 662.3,336.9 672.0,328.3 681.7,336.9 691.4,328.5 701.1,320.1 710.8,328.8 720.5,337.4 730.2,329.6 739.9,338.2 749.6,346.7 759.3,355.2 769.0,347.0 778.7,338.7 788.4,347.2 798.1,355.6 807.8,347.9 817.5,356.3 827.2,347.6 836.9,339.4 846.6,331.2 856.3,322.1 866.0,312.5 875.7,321.3 885.4,330.0 895.1,338.5 904.8,347.1 914.5,338.9 924.2,330.6 933.9,339.2 943.6,347.7 953.3,339.8 963.0,348.2 972.7,339.5 982.4,331.4 992.1,323.2 1001.8,314.5 1011.5,306.7 1021.2,297.8 1030.9,306.7 1040.6,298.4 1050.3,289.7 1060.0,280.1" fill="none" stroke="#ffcc00" stroke-width="2" opacity="1"/>
<polyline points="90.0,512.0 99.7,505.7 109.4,498.8 119.1,505.7 128.8,498.4 138.5,491.1 148.2,483.8 157.9,490.9 167.6,497.9 177.3,504.8 187.0,497.8 196.7,491.1 206.4,484.5 216.1,491.5 225.8,484.6 235.5,477.3 245.2,484.4 254.9,477.3 264.6,469.6 274.3,476.8 284.0,484.0 293.7,476.5 303.4,483.7 313.1,490.7 322.8,483.3 332.5,490.3 342.2,497.3 351.9,490.3 361.6,482.8 371.3,475.8 381.0,468.9 390.7,461.8 400.4,469.1 410.1,461.8 419.8,469.1 429.5,476.3 439.2,483.4 448.9,490.5 458.6,497.5 468.3,490.3 478.0,482.6 487.7,489.7 497.4,496.7 507.1,503.6 516.8,496.5 526.5,489.9 536.2,482.7 545.9,475.5 555.6,467.4 565.3,460.6 575.0,453.2 584.7,445.6 594.4,453.0 604.1,460.4 613.8,453.5 623.5,460.8 633.2,468.1 642.9,461.0 652.6,468.3 662.3,461.1 672.0,468.4 681.7,475.6 691.4,482.7 701.1,475.8 710.8,468.1 720.5,460.6 730.2,453.3 739.9,446.0 749.6,453.5 759.3,445.9 769.0,438.8 778.7,431.2 788.4,438.8 798.1,431.8 807.8,424.2 817.5,416.6 827.2,408.3 836.9,416.1 846.6,423.8 856.3,415.7 866.0,408.1 875.7,415.9 885.4,423.6 895.1,416.0 904.8,408.2 914.5,400.4 924.2,408.3 933.9,400.6 943.6,392.8 953.3,385.3 963.0,376.8 972.7,368.2 982.4,376.4 992.1,384.5 1001.8,392.5 1011.5,400.5 1021.2,392.9 1030.9,400.8 1040.6,392.4 1050.3,400.4 1060.0,408.2" fill="none" stroke="#ff4444" stroke-width="2" opacity="1"/>
</g><text x="575.0" y="612" fill="#8888aa" font-size="12" text-anchor="middle">Trade number</text><text x="0" y="0" fill="#8888aa" font-size="12" text-anchor="middle" transform="rotate(-90) translate(-300,16)">Balance ($)</text><line x1="1060.0" y1="127.8" x2="90" y2="127.8" stroke="#44dd77" stroke-width="1" stroke-dasharray="3,4" opacity="0.6"/><text x="82" y="127.8" fill="#44dd77" font-size="11" text-anchor="end" dominant-baseline="middle">$15673</text><line x1="1060.0" y1="280.1" x2="90" y2="280.1" stroke="#ffcc00" stroke-width="1" stroke-dasharray="3,4" opacity="0.6"/><text x="82" y="280.1" fill="#ffcc00" font-size="11" text-anchor="end" dominant-baseline="middle">$13424</text><line x1="1060.0" y1="408.2" x2="90" y2="408.2" stroke="#ff4444" stroke-width="1" stroke-dasharray="3,4" opacity="0.6"/><text x="82" y="408.2" fill="#ff4444" font-size="11" text-anchor="end" dominant-baseline="middle">$11532</text></svg>